<?xml version="1.0" encoding="iso-8859-1"?>
<!-- Generator: Adobe Illustrator 19.0.0, SVG Export Plug-In . SVG Version: 6.00 Build 0)  -->
<svg version="1.1" id="Layer_1" xmlns="http://www.w3.org/2000/svg" xmlns:xlink="http://www.w3.org/1999/xlink" x="0px" y="0px"
	 viewBox="220 -126 758 449" style="enable-background:new 220 -126 758 449;" xml:space="preserve">
<g id="XMLID_478_">
	<rect id="XMLID_482_" x="219" y="-127" style="fill:#AFCDD0;" width="758" height="339.378"/>
	<rect id="XMLID_479_" x="219" y="212.378" style="fill:#2895B2;" width="758" height="109.622"/>
</g>
<g id="XMLID_442_">
	<g id="XMLID_443_">
		<g id="XMLID_467_">
			<g id="XMLID_468_">
				<path id="XMLID_477_" style="fill:#6F3D18;" d="M549.841,21.188c0,0-1.72,40.146-11.521,54.521c0,0,53.577,32.996,126.755-0.98
					c0,0-13.721-21.235-9.474-49.33L549.841,21.188z"/>
				<rect id="XMLID_476_" x="581.408" y="69.796" style="fill:#FFFFFF;" width="38.346" height="45.366"/>
				<polygon id="XMLID_475_" style="fill:#B0AFB0;" points="581.35,93.639 620.882,71.496 581.34,62.425 				"/>
				<g id="XMLID_472_">
					<path id="XMLID_474_" style="fill:#E0E6E3;" d="M551.947,14.071c0,34.079,21.293,61.773,47.776,62.535V-36.17
						C573.698-35.323,551.947-19.533,551.947,14.071z"/>
					<path id="XMLID_473_" style="fill:#FFFFFF;" d="M601.945-36.21c-0.743,0-1.483,0.017-2.223,0.04V76.605
						c0.372,0.008,0.74,0.035,1.114,0.035c27.003,0,48.889-28.013,48.889-62.57C649.726-20.488,628.949-36.21,601.945-36.21z"/>
				</g>
				<path id="XMLID_471_" style="fill:#6F3D18;" d="M620.867-16.907c0,0,5.047,23.973,31.544,29.02c0,0,11.356-64.35-46.684-64.35
					c-58.04,0-60.565,37.853-60.565,64.35C545.162,12.112,588.063,15.898,620.867-16.907z"/>
				<path id="XMLID_470_" style="fill:#FFFFFF;" d="M644.798,17.998c-1.051,7.212,0.968,13.483,4.508,14.004
					c3.542,0.523,7.266-4.904,8.315-12.119c1.051-7.212-0.969-13.481-4.509-14.003C649.572,5.359,645.847,10.783,644.798,17.998z"/>
				<path id="XMLID_469_" style="fill:#E0E6E3;" d="M555.261,17.408c0.688,7.119-1.391,13.15-4.64,13.464
					c-3.246,0.317-6.437-5.199-7.122-12.319c-0.687-7.121,1.392-13.15,4.64-13.466C551.386,4.774,554.578,10.288,555.261,17.408z"/>
			</g>
		</g>
		<g id="XMLID_444_">
			<g id="XMLID_445_">
				<g id="XMLID_362_">
					<g id="XMLID_363_">
						<g id="XMLID_364_">
							<g id="XMLID_369_">
								<path id="XMLID_370_" style="fill:#0A333F;" d="M547.65,3.972c0,0,8.421-42.425,48.902-42.425
									c40.481,0,51.169,36.919,51.169,36.919l-6.153,0.647c0,0-10.04-27.851-43.883-27.851c-33.843,0-45.825,32.71-45.825,32.71
									S547.65,3.972,547.65,3.972z"/>
							</g>
							<g id="XMLID_367_">
								<path id="XMLID_368_" style="fill:#2C5871;" d="M643.187,1.704c0,0,3.886,33.033,2.914,35.3c0,0,12.954,1.943,13.279-8.421
									V10.772c0,0-0.522-6.252-8.097-9.068h-6.802"/>
							</g>
							<g id="XMLID_365_">
								<path id="XMLID_366_" style="fill:#0A333F;" d="M607.42,55.936c0,0,28.642-2.244,40.302-15.896c0,0,2.901-2.057,4.96,2.057
									c2.057,4.116-28.617,17.956-45.262,18.704c0,0-0.747,2.992-8.975,3.179c-8.229,0.187-10.1-2.616-10.1-2.616
									s-3.927-4.49,0.746-7.67c4.676-3.179,8.594-1.936,8.594-1.936S605.738,52.196,607.42,55.936z"/>
							</g>
						</g>
					</g>
				</g>
			</g>
		</g>
	</g>
</g>
<path id="XMLID_439_" style="fill:#1D869C;" d="M581.28,201.052l49.228-3.022L619.939,94.176c0,0-1.161,9.488-19.822,9.488
	c-18.66,0-18.678-8.63-18.678-8.63l-9.402,8.098L581.28,201.052z"/>
<polygon id="XMLID_436_" style="fill:#0A333F;" points="565.255,122.625 558.928,113.644 581.439,95.033 531.332,114.247 
	495.11,213.22 530.87,250.594 542.866,227.294 526.487,211.143 543.789,165.233 551.864,212.297 590.986,214.958 555.867,131.197 
	"/>
<g id="XMLID_429_">
	<polygon id="XMLID_433_" style="fill:#0A333F;" points="679.907,117.708 622.922,94.175 619.858,94.821 641.999,113.031 
		636.693,123.033 645.469,129.768 607.14,216.056 643.454,218.526 663.296,170.54 674.601,211.375 657.759,233.061 659.373,266.283 
		662.604,267.436 704.592,213.45 	"/>
	<path id="XMLID_430_" style="fill:#2C5871;" d="M637.332,122.794l4.667-9.763l-22.141-18.21l-12.776,101.602l-9.642-1.807
		c0,0-11.651-43.591-16.07-98.632l0.201-1.004l-0.132,0.054l-24.696,19.905l8.147,8.729l-9.024,7.529l33.753,82.949l16.236-13.871
		l2.093,15.325l37.521-85.832L637.332,122.794z"/>
</g>
<g id="XMLID_397_">
	<g id="XMLID_413_">
		<path id="XMLID_423_" style="fill:#FFFFFF;" d="M532.818,270.339l11.549-8.153l105.98-74.819l9.628-6.798H532.894
			c-2.26,0-4.089,1.614-4.089,3.605v82.563C528.805,268.706,530.596,270.304,532.818,270.339z"/>
		<path id="XMLID_420_" style="fill:#E5E5E5;" d="M532.818,270.339c0.025,0,0.049,0.004,0.076,0.004h11.961v-2.398h21.095v2.398
			h67.015v-2.398h21.096v2.398h11.961c2.257,0,4.088-1.615,4.088-3.607v-82.563c0-1.991-1.831-3.605-4.088-3.605h-6.047
			l-9.628,6.798L532.818,270.339z"/>
		<path id="XMLID_414_" style="fill:#E5E5E5;" d="M670.369,272.886H527.966c-2.739,0-4.959,1.616-4.959,3.607v0.762
			c0,1.991,2.22,3.606,4.959,3.606h142.404c2.738,0,4.958-1.615,4.958-3.606v-0.762
			C675.327,274.502,673.107,272.886,670.369,272.886z"/>
	</g>
	<path id="XMLID_410_" style="fill:#EC8A40;" d="M601.868,207.099c0.141-0.05,0.231-0.079,0.231-0.079
		C602.02,207.03,601.944,207.061,601.868,207.099z"/>
	<path id="XMLID_407_" style="fill:#EC8A40;" d="M601.876,250.928c0.141-0.051,0.231-0.081,0.231-0.081
		C602.028,250.86,601.952,250.89,601.876,250.928z"/>
	<rect id="XMLID_404_" x="545.62" y="268.738" style="fill:#002D3E;" width="19.582" height="3.623"/>
	<rect id="XMLID_401_" x="633.711" y="268.738" style="fill:#FFFFFF;" width="19.583" height="3.623"/>
	<rect id="XMLID_398_" x="545.62" y="268.738" style="fill:#FFFFFF;" width="19.582" height="3.623"/>
</g>
<g id="XMLID_352_">
	<g id="XMLID_356_">
		<g id="XMLID_357_">
			<g id="XMLID_358_">
				<path id="XMLID_396_" style="fill:#FFFFFF;" d="M735.678,30.868c0,0,5.211-21.769,8.894-23.511
					c3.684-1.741,13.28,6.531,13.28,6.531l1.918,3.122l-8.449,16.035L735.678,30.868z"/>
				<rect id="XMLID_395_" x="763.73" y="11.493" style="fill:#FFFFFF;" width="18.069" height="18.068"/>
				<rect id="XMLID_394_" x="786.805" y="11.493" style="fill:#FFFFFF;" width="17.197" height="16.544"/>
				<rect id="XMLID_393_" x="763.73" y="46.294" style="fill:#FFFFFF;" width="18.069" height="17.756"/>
				<rect id="XMLID_392_" x="786.805" y="45.26" style="fill:#FFFFFF;" width="18.063" height="18.79"/>
				<polygon id="XMLID_391_" style="fill:#FFFFFF;" points="723.674,57.823 733.5,40.95 745.739,49.386 741.989,64.912 				"/>
				<g id="XMLID_359_">
					<g id="XMLID_360_">
						<path id="XMLID_384_" style="fill:#A1B53B;" d="M759.172,9.46l-13.533-4.766c-1.602-0.564-3.03-0.649-3.192-0.189
							l-20.246,57.498c-0.163,0.461,1.004,1.287,2.606,1.852l13.534,4.765c1.595,0.562,3.027,0.65,3.189,0.19l20.246-57.498
							C761.939,10.851,760.768,10.021,759.172,9.46z M741.129,61.705l-0.333,0.268l-14.474-5.097l-0.089-0.416l0.562-1.596
							l0.328-0.262l14.474,5.097l0.093,0.411L741.129,61.705z M732.367,50.764c0.719-2.041,2.956-3.112,4.996-2.394
							s3.112,2.955,2.394,4.995c-0.719,2.041-2.955,3.113-4.996,2.394C732.721,55.041,731.649,52.805,732.367,50.764z
							 M753.485,26.612l-0.332,0.27l-14.475-5.097l-0.088-0.418l0.561-1.594l0.329-0.266l14.475,5.097l0.092,0.414L753.485,26.612z
							 M739.954,17.992l0.697-1.981l14.584,5.135l-0.698,1.981L739.954,17.992z M755.958,19.591l-0.333,0.27l-14.475-5.097
							l-0.088-0.418l0.56-1.589l0.33-0.27l14.475,5.096l0.09,0.419L755.958,19.591z"/>
						<path id="XMLID_377_" style="fill:#EFB42B;" d="M779.848,5.614h-14.349c-1.698,0-3.073,0.394-3.073,0.882v60.958
							c0,0.489,1.375,0.881,3.073,0.881h14.349c1.691,0,3.07-0.392,3.07-0.881V6.496C782.918,6.007,781.539,5.614,779.848,5.614z
							 M780.18,60.887l-0.224,0.364H764.61l-0.222-0.364v-1.692l0.222-0.357h15.346l0.224,0.357V60.887z M768.282,53.475
							c0-2.163,1.753-3.916,3.917-3.916c2.163,0,3.917,1.754,3.917,3.916c0,2.164-1.753,3.917-3.917,3.917
							C770.035,57.393,768.282,55.64,768.282,53.475z M780.18,23.681l-0.224,0.365H764.61l-0.222-0.365v-1.69l0.222-0.36h15.346
							l0.224,0.36V23.681z M764.553,20.045v-2.1h15.461v2.1H764.553z M780.18,16.238l-0.224,0.365H764.61l-0.222-0.365v-1.685
							l0.222-0.365h15.346l0.224,0.365V16.238z"/>
						<path id="XMLID_361_" style="fill:#F3705A;" d="M803.05,5.614h-14.348c-1.698,0-3.074,0.394-3.074,0.882v60.958
							c0,0.489,1.376,0.881,3.074,0.881h14.348c1.692,0,3.072-0.392,3.072-0.881V6.496C806.122,6.007,804.742,5.614,803.05,5.614z
							 M803.382,60.887l-0.224,0.364h-15.346l-0.222-0.364v-1.692l0.222-0.357h15.346l0.224,0.357V60.887z M791.485,53.475
							c0-2.163,1.754-3.916,3.917-3.916c2.163,0,3.917,1.754,3.917,3.916c0,2.164-1.754,3.917-3.917,3.917
							C793.239,57.393,791.485,55.64,791.485,53.475z M803.382,23.681l-0.224,0.365h-15.346l-0.222-0.365v-1.69l0.222-0.36h15.346
							l0.224,0.36V23.681z M787.756,20.045v-2.1h15.461v2.1H787.756z M803.382,16.238l-0.224,0.365h-15.346l-0.222-0.365v-1.685
							l0.222-0.365h15.346l0.224,0.365V16.238z"/>
					</g>
				</g>
			</g>
		</g>
	</g>
	<rect id="XMLID_353_" x="709.142" y="70.064" style="fill:#E7E8E8;" width="122.906" height="7.257"/>
</g>
<g id="XMLID_319_">
	<g id="XMLID_332_">
		<g id="XMLID_333_">
			<path id="XMLID_349_" style="fill:#16B6A6;" d="M778.453-99.36v-5.463c-9.832-0.043-19.677,3.681-27.18,11.184
				c-14.919,14.917-14.919,39.101,0,54.017c7.503,7.502,17.348,11.227,27.18,11.184v-5.463c-0.004,0-0.007,0-0.012,0v-1.405l0,0
				v-62.92l0,0v-1.133C778.446-99.36,778.449-99.36,778.453-99.36z"/>
			<path id="XMLID_348_" style="fill:#E5E4E2;" d="M778.413-35.307c0.013,0,0.026-0.002,0.041-0.002v-62.919
				c-0.015,0-0.028,0-0.041,0c-17.373,0-31.462,14.086-31.462,31.459C746.95-49.396,761.039-35.307,778.413-35.307z"/>
			<path id="XMLID_345_" style="fill:#62C5B8;" d="M805.287-93.639c-7.415-7.412-17.116-11.14-26.834-11.184v2.834
				c-0.004,0-0.007,0-0.011,0l0,0v71.362l0,0c0.004,0,0.007,0,0.011,0v2.189c9.718-0.044,19.419-3.772,26.834-11.184
				C820.204-54.539,820.204-78.722,805.287-93.639z"/>
			<path id="XMLID_344_" style="fill:#FFFFFF;" d="M778.483-98.229c-0.013,0-0.026,0.002-0.041,0.002v62.919
				c0.016,0,0.028,0,0.041,0c17.373,0,31.462-14.086,31.462-31.459S795.856-98.229,778.483-98.229z"/>
			<path id="XMLID_343_" style="fill:#0A3654;" d="M781.591-71.327c-0.011-0.007-0.022-0.012-0.036-0.02
				c-2.587-1.668-6.039-0.942-7.73,1.637c-1.69,2.579-0.977,6.032,1.586,7.738c0.012,0.008,0.021,0.019,0.031,0.027
				c2.592,1.698,6.069,0.972,7.765-1.617C784.906-66.153,784.183-69.628,781.591-71.327z"/>
			<g id="XMLID_340_">
				<path id="XMLID_342_" style="fill:none;" d="M778.506-61.54c2.82-0.128,5.004-2.514,4.878-5.333
					c-0.047-1.035-0.404-1.982-0.97-2.764c-0.904-1.248-2.354-2.064-3.98-2.112v10.208C778.458-61.541,778.482-61.539,778.506-61.54
					z"/>
				<path id="XMLID_341_" style="fill:none;" d="M778.052-71.748c-2.819,0.126-5.002,2.513-4.876,5.331
					c0.051,1.154,0.497,2.187,1.177,3.013c0.972,1.176,2.446,1.911,4.081,1.863v-10.208
					C778.308-71.753,778.18-71.753,778.052-71.748z"/>
			</g>
			<g id="XMLID_337_">
				<rect id="XMLID_339_" x="777.308" y="-97.27" style="fill:#010101;" width="2.161" height="4.575"/>
				<rect id="XMLID_338_" x="777.308" y="-41.166" style="fill:#010101;" width="2.161" height="4.575"/>
			</g>
			<g id="XMLID_334_">
				<rect id="XMLID_336_" x="804.153" y="-68.71" style="fill:#010101;" width="4.575" height="2.16"/>
				<rect id="XMLID_335_" x="748.05" y="-68.71" style="fill:#010101;" width="4.575" height="2.16"/>
			</g>
		</g>
	</g>
	<g id="XMLID_325_">
		<g id="XMLID_137_">
			<path id="XMLID_142_" style="fill:#0A3654;" d="M755.412-67.308c-0.366-0.366-0.566-0.89-0.5-1.443
				c0.115-0.958,0.985-1.641,1.942-1.526l21.467,2.577c0.958,0.113,1.643,0.982,1.526,1.942c-0.114,0.958-0.984,1.642-1.942,1.525
				l-21.468-2.576C756.034-66.857,755.678-67.041,755.412-67.308z"/>
			<path id="XMLID_141_" style="fill:#0A3654;" d="M777.494-64.733c-0.411-0.41-0.546-1.028-0.288-1.504l13.978-25.867
				c0.307-0.565,1.048-0.714,1.657-0.335c0.611,0.383,0.855,1.148,0.551,1.714l-13.98,25.868c-0.305,0.565-1.047,0.715-1.656,0.334
				C777.66-64.585,777.571-64.656,777.494-64.733z"/>
		</g>
	</g>
	<g id="XMLID_320_">
		<g id="XMLID_128_">
			<path id="XMLID_130_" style="fill:#0A3654;" d="M791.84-40.046c-0.026-0.033-0.052-0.07-0.075-0.109l-16.95-30.205
				c-0.211-0.376-0.048-0.884,0.361-1.136c0.41-0.251,0.906-0.138,1.124,0.224l16.95,30.205c0.21,0.376,0.047,0.884-0.362,1.136
				C792.523-39.706,792.08-39.762,791.84-40.046z"/>
		</g>
	</g>
</g>
<g id="XMLID_180_">
	<g id="XMLID_310_">
		<g id="XMLID_311_">
			<rect id="XMLID_316_" x="392.966" y="-100.01" style="fill:#FBB222;" width="102.931" height="64.239"/>
			<path id="XMLID_315_" style="fill:#1C344A;" d="M497.261-105.219h-48.482v-1.24c0-2.4-1.947-4.347-4.347-4.347
				s-4.347,1.947-4.347,4.347v1.24h-48.482c-1.783,0-3.226,1.444-3.226,3.225c0,1.78,1.443,3.224,3.226,3.224h48.482h4.347h4.347
				h48.482c1.78,0,3.224-1.443,3.224-3.224C500.485-103.775,499.042-105.219,497.261-105.219z"/>
			<path id="XMLID_312_" style="fill:#1C344A;" d="M497.261-34.782H391.603c-1.783,0-3.226,1.443-3.226,3.225
				c0,1.78,1.443,3.225,3.226,3.225h51.585v3.102c-2.963,0.581-5.208,3.192-5.208,6.324c0,3.557,2.894,6.451,6.451,6.451
				c3.557,0,6.451-2.894,6.451-6.451c0-3.132-2.245-5.743-5.211-6.324v-3.102h51.588c1.78,0,3.224-1.444,3.224-3.225
				C500.485-33.339,499.042-34.782,497.261-34.782z M448.399-18.907c0,2.188-1.779,3.967-3.967,3.967s-3.967-1.779-3.967-3.967
				c0-2.188,1.779-3.966,3.967-3.966C446.621-22.872,448.399-21.095,448.399-18.907z"/>
		</g>
	</g>
	<g id="XMLID_181_">
		<path id="XMLID_309_" style="fill:#FFFFFF;" d="M421.856-61.946c-0.052,0.121-0.193,0.273-0.094,0.425
			c0.094,0.152-0.151,0.456-0.217,0.515c-0.059,0.067-0.152,0.152-0.117,0.304c0.029,0.152-0.217,0.246-0.281,0.305
			c-0.059,0.066-0.211,0.37-0.305,0.456c-0.094,0.094-0.117,0.371,0.064,0.456c0.182,0.094,0.304,0.429,0.059,0.522
			c-0.24,0.094-0.275,0.363-0.181,0.484c0.094,0.125,0.245,0.522,0.363,0.609c0.129,0.094,0.34,0.796,0.432,0.979
			c0.082,0.179,0.427,0.847,0.386,1.123c-0.029,0.273,0.316,0.55,0.398,0.609c0.094,0.062,0.491,0.425,0.644,0.519
			c0.151,0.094,0.55,0.211,0.491,0.913c-0.071,0.702-0.129,2.044-0.129,2.313c0,0.273-0.118,0.519-0.187,0.578
			c-0.052,0.066-0.082,0.429-0.052,0.609c0.029,0.187,0.052,0.885-0.181,1.709c-0.246,0.819-0.187,1.341-0.187,1.463
			c0,0.117-0.152,0.456-0.181,0.574c-0.029,0.125,0.106,0.41,0.24,0.597c0.135,0.184,0.029,0.527-0.023,0.76
			c-0.059,0.242-0.059,0.265-0.024,0.421c0.024,0.16-0.111,0.316-0.193,0.398c-0.071,0.082-0.123,0.557-0.071,0.948
			c0.047,0.394,0.205,1.076,0.205,1.135c0,0.047,0.023,0.679,0.187,0.76c0.151,0.078,0.082,0.34,0.708,0.316
			c0.182-0.028,0.398-0.028,0.498,0.082c0.106,0.101,0.375,0,0.579-0.058c0.217-0.051,0.14-0.18-0.129-0.234
			c-0.264-0.05-0.474-0.21-0.579-0.398c-0.099-0.179-0.076-0.39-0.152-0.527c-0.082-0.129-0.345-0.389,0.023-0.655
			c0.363-0.262,0.679-0.812,0.708-0.999c0.023-0.187-0.052-0.241-0.181-0.241c-0.129,0-0.398-0.496,0.129-0.706
			c0.526-0.21,0.375-0.925,0.269-1.084c-0.106-0.156-0.163-0.34-0.035-0.495c0.14-0.161,0.369,0.285,0.638,0.023
			c0.257-0.265,0-0.632,0.099-0.734c0.106-0.106,0.772,0.468,1.246-0.398c0.257-0.527-0.193-0.843-0.269-0.998
			c-0.076-0.16-0.421-0.476-0.31-0.55c0.106-0.082,0.444,0.257,0.632,0.39c0.175,0.129,0.498,0.316,0.702-0.028
			c0.21-0.34,0.375-0.363,0.375-0.632c0-0.265,0.129-0.394,0.205-0.371c0.087,0.031,0.24-0.179,0.369-0.55
			c0.14-0.366,0.503-0.6,0.375-0.917c-0.129-0.323-0.106-0.632,0.258-0.791c0.368-0.156,0.24-0.366,0.368-0.398
			c0.134-0.028,0.269,0.031,0.368-0.156c0.106-0.184,0.375-0.106,0.427-0.106s0.421-0.078,0.451-0.398
			c0.024-0.316,0.152-0.605,0.34-0.842c0.182-0.234,0.182-0.815,0.182-1.154c0-0.343-0.135-0.632,0.158-0.925
			c0.293-0.285,0.345-0.39,0.498-0.706c0.158-0.316,0.368-0.21,0.398-0.897c0.023-0.682-0.152-0.975-0.369-0.843
			c-0.21,0.129-0.363-0.028-0.526-0.262c-0.158-0.241-0.316-0.476-0.451-0.476c-0.129,0-0.439,0.265-0.55,0.024
			c-0.106-0.234-0.286-0.129-0.345-0.074c-0.053,0.05-0.182,0.106-0.182-0.241c0-0.34-0.286-0.316-0.398-0.316
			c-0.106,0-0.392-0.106-0.498-0.21c-0.106-0.106-0.34-0.156-0.556,0.031c-0.205,0.179-0.333,0.074-0.175-0.106
			c0.152-0.187,0.474-0.476,0.333-0.632c-0.129-0.16-0.281-0.082-0.281-0.476c0-0.398-0.351-0.713-0.977-0.765
			c-0.638-0.054-0.848-0.21-0.948-0.371c-0.111-0.156-0.076-0.39-0.445-0.496c-0.375-0.106-0.375-0.581-0.684-0.581
			c-0.316,0-0.79,0.184-0.819-0.028c-0.024-0.21-0.293,0.082-0.474-0.16c-0.182-0.234-0.55-0.179-0.579,0.031
			c-0.024,0.21,0.029,0.6-0.187,0.55c-0.205-0.054-0.181-0.184-0.106-0.476c0.076-0.285,0.182-0.527,0.023-0.527
			c-0.151,0-0.175,0.371-0.368,0.371c-0.175,0-0.439,0-0.498,0.316c-0.052,0.316-0.602,0.316-0.503,0.737
			C421.792-62.157,421.962-62.211,421.856-61.946z"/>
		<path id="XMLID_308_" style="fill:#FFFFFF;" d="M438.483-70.882c-0.152,0.199-0.275,0.593-0.134,0.663
			c0.134,0.07,0.134,0.316-0.071,0.554c-0.21,0.246-0.316,0.387-0.451,0.351c-0.141-0.035-0.24-0.106-0.491,0.488
			c-0.246,0.589-0.696,1.56-0.802,1.666c-0.099,0.106-0.071,0.421,0.076,0.456c0.135,0.035,0.135,0.277,0.135,0.488
			c0,0.203,0.217,0.659-0.035,0.937c-0.246,0.281-0.521,0.491-0.345,0.589c0.17,0.106,0.31,0.527,0.31,0.698
			c0,0.175,0.286,0.421,0.456,0.554c0.175,0.14,0.456,0.421,0.351,0.562c-0.106,0.137,0,0.347,0.163,0.488
			c0.182,0.14,0.767,0.519,0.836,0.694c0.076,0.172,0.175,0.276,0.555,0.241c0.392-0.035,0.982-0.172,1.217-0.172
			c0.252,0,0.456-0.07,0.597-0.175c0.135-0.106,0.281-0.351,0.626-0.316c0.351,0.035,0.556,0.14,0.597,0.352
			c0.029,0.21,0.029,0.312,0.521,0.276c0.479-0.035,0.515,0.106,0.62,0.246c0.111,0.14,0,0.624,0,0.866
			c0,0.246-0.386,0.456-0.175,0.729c0.21,0.281,0.59,0.734,0.59,0.909c0,0.175,0.351,0.273,0.351,0.554
			c0,0.281,0.275,0.663,0.205,0.944c-0.064,0.273,0,0.484,0.111,0.589c0.099,0.101,0,0.382-0.175,0.593
			c-0.17,0.203-0.31,0.623-0.345,1.041c-0.035,0.413-0.106,0.8,0.141,0.975c0.234,0.172,0.269,0.522,0.269,0.593
			s0.386,0.309,0.316,0.796c-0.07,0.491-0.07,1.08,0.21,1.463c0.281,0.378,0.415,0.729,0.415,0.94c0,0.207,0,0.312,0.134,0.382
			c0.14,0.07,0.21,0.273,0.071,0.386c-0.135,0.097-0.035,0.273,0.07,0.449c0.106,0.172,0.217,0.628,0.562,0.418
			c0.351-0.21,0.795-0.277,1.006-0.277c0.205,0,0.696,0.066,1.111-0.659c0.416-0.734,0.977-1.638,1.041-1.744
			c0.07-0.106,0.175-0.277-0.064-0.312c-0.24-0.035-0.064-0.387,0.106-0.421c0.175-0.035,0.486,0.035,0.656-0.203
			c0.175-0.246-0.029-0.698-0.064-0.909c-0.04-0.21-0.316-0.448-0.316-0.589s0.175-0.175,0.421-0.312
			c0.246-0.14,0.451-0.316,0.515-0.491c0.07-0.168,0.632-0.106,0.661-0.694c0.041-0.593,0-1.424-0.198-1.845
			c-0.217-0.413-0.246-0.623-0.217-0.936c0.04-0.316,0.04-0.905,0.245-1.182c0.21-0.281,0.597-0.694,0.901-1.081
			c0.321-0.382,0.842-0.796,1.047-1.182c0.205-0.382,0.275-0.796,0.38-1.041c0.111-0.246,0.491-0.698,0.521-1.014
			c0.041-0.309,0.071-0.519-0.275-0.378c-0.351,0.14-0.802,0.14-1.048,0.246c-0.234,0.106-0.585,0.378-0.731-0.175
			c-0.129-0.557-0.234-0.663-0.48-0.909c-0.245-0.238-0.521-0.519-0.561-0.831c-0.029-0.316-0.245-0.491-0.34-0.554
			c-0.111-0.07-0.175-0.597-0.175-0.803c0-0.21-0.071-0.421-0.246-0.484c-0.175-0.07-0.146-0.316-0.21-0.562
			c-0.071-0.241-0.106-0.62-0.281-0.796c-0.175-0.175-0.55-0.734-0.45-0.874c0.106-0.14,0.31,0.246,0.421,0.351
			c0.099,0.101,0.175-0.07,0.205-0.456c0.035-0.378-0.14-0.729-0.451-0.729c-0.31,0-0.597-0.07-0.767,0.07
			c-0.175,0.14-0.246,0.175-0.661,0.071c-0.421-0.101-1.013-0.557-1.246-0.593c-0.252-0.035-0.567,0.035-0.498,0.281
			c0.076,0.241-0.07,0.628-0.24,0.698c-0.175,0.07-0.175-0.316-0.421-0.351c-0.24-0.035-0.444-0.628-0.901-0.663
			c-0.445-0.035-0.971,0.035-1.036-0.238c-0.076-0.281,0.029-0.351,0.129-0.351c0.111,0,0.175-0.312,0.111-0.382
			c-0.07-0.07,0.175-0.519-0.111-0.519c-0.275,0-0.93,0.203-1.386,0.168c-0.456-0.035-1.083-0.132-1.428,0.316
			c-0.351,0.453-0.796,0.242-0.977,0.242c-0.17,0-0.451,0.035-0.656,0.386C438.804-70.987,438.629-71.058,438.483-70.882z"/>
		<path id="XMLID_307_" style="fill:#FFFFFF;" d="M469.279-53.3c-0.147,0.106-0.562,0.25-0.51,0.449
			c0.059,0.207-0.052,0.432-0.052,0.432s0.076,0.172,0.111,0.3c0.024,0.121-0.111,0.448,0.024,0.831
			c0.117,0.375,0.444,1.15,0.444,1.709c0,0.55,0,0.647,0.175,0.749c0.175,0.106,0.462,0.106,0.585-0.047
			c0.129-0.152,0.404-0.253,0.602-0.253c0.199,0,0.55,0.125,0.696-0.097c0.152-0.23,0.632-0.429,0.784-0.456
			c0.146-0.024,0.573-0.101,0.749-0.148c0.175-0.05,0.561-0.074,0.608,0c0.047,0.078,0.304,0,0.421,0.222
			c0.135,0.23,0.111,0.253,0.257,0.503c0.152,0.253,0.205,0.175,0.305,0.078c0.099-0.101,0.222-0.152,0.245-0.199
			c0.029-0.054,0.129-0.175,0.175,0.074c0.052,0.253,0.129,0.324,0.129,0.503c0,0.175,0.222,0.101,0.298,0.3
			c0.076,0.199,0.023,0.503,0.298,0.702c0.281,0.203,0.556,0.25,0.632,0.328c0.082,0.074,0.175,0.024,0.298-0.148
			c0.135-0.179,0.111-0.226,0.31,0c0.199,0.222,0.175,0.351,0.351,0.172c0.175-0.172,0.094-0.351,0.427-0.375
			c0.328-0.023,0.228,0,0.328-0.125c0.099-0.129-0.076-0.226,0.023-0.354c0.1-0.125,0.1-0.375,0.175-0.55
			c0.076-0.175,0.152-0.581,0.298-0.725c0.151-0.152,0.275-0.207,0.304-0.48c0.024-0.277,0-0.628,0.099-0.854
			c0.099-0.23-0.076-0.277-0.129-0.429c-0.047-0.151,0.076-0.578-0.099-0.776c-0.175-0.207-0.222-0.382-0.298-0.429
			c-0.076-0.05-0.023-0.456-0.199-0.503c-0.175-0.051-0.175-0.25-0.275-0.425c-0.099-0.175-0.099-0.328-0.252-0.429
			c-0.158-0.097-0.555-0.074-0.555-0.402c0-0.328-0.047-0.581-0.106-0.679c-0.047-0.102-0.047-0.476-0.175-0.628
			c-0.117-0.152-0.328,0.199-0.351-0.203c-0.023-0.398-0.129-0.55-0.198-0.679c-0.071-0.125-0.152-0.375-0.222-0.07
			c-0.082,0.297-0.134,0.8-0.105,0.999c0.023,0.207-0.053,0.382-0.1,0.534c-0.052,0.144-0.076,0.449-0.205,0.449
			c-0.123,0-0.503-0.402-0.702-0.527c-0.199-0.129-0.62-0.304-0.55-0.48c0.076-0.175,0.205-0.304,0.252-0.448
			c0.052-0.152,0.099-0.351-0.123-0.328c-0.228,0.023-0.351-0.055-0.48-0.078c-0.123-0.023-0.321-0.05-0.321,0.078
			c0,0.121-0.229,0.047-0.357,0.047c-0.129,0-0.281,0.05-0.351,0.304c-0.082,0.25-0.281,0.351-0.129,0.448
			c0.152,0.106,0.083,0.207-0.07,0.106c-0.158-0.106-0.351-0.05-0.41-0.203c-0.047-0.152-0.152-0.3-0.298-0.152
			c-0.152,0.152-0.351,0.425-0.48,0.578c-0.123,0.151-0.252,0.253-0.252,0.304c0,0.047-0.076,0.148-0.146,0.047
			c-0.076-0.097-0.228-0.07-0.252,0.253c-0.024,0.328-0.053,0.479-0.252,0.554c-0.198,0.078-0.398,0.024-0.573,0.199
			c-0.175,0.175-0.328,0.207-0.427,0.207C469.578-53.522,469.449-53.424,469.279-53.3z"/>
		<path id="XMLID_306_" style="fill:#FFFFFF;" d="M424.611-80.991c-0.099,0.175-0.182,0.538-0.491,0.375
			c-0.31-0.163-0.444-0.281-0.421-0.496c0.023-0.21,0.187-0.608-0.117-0.562c-0.304,0.047-0.421-0.187-0.725-0.382
			c-0.316-0.187-0.871-0.257-0.994-0.257c-0.117,0-0.099,0.07-0.187,0.304c-0.094,0.241-0.31,0.476-0.117,0.64
			c0.187,0.164,0.158,0.398,0,0.542c-0.17,0.14-0.146,0.187,0.071,0.468c0.21,0.281,0.38,0.663,0.047,0.991
			c-0.328,0.328-0.538,0.351-0.357,0.635c0.193,0.281,0.24,0.491,0.264,0.656c0.024,0.163-0.123,0.288-0.351,0.429
			c-0.24,0.14-0.398-0.187-0.521-0.382c-0.123-0.187-0.047-0.562-0.17-0.702c-0.117-0.144-0.182-0.238-0.444-0.401
			c-0.257-0.163-0.936-0.609-1.083-0.749c-0.135-0.148-0.521-0.172-0.725-0.195c-0.217-0.023-0.31-0.094-0.31-0.351
			s-0.064-0.257-0.264-0.257c-0.181,0-0.181-0.285-0.181-0.542s0.041-0.562,0.257-0.757c0.21-0.187,0.328-0.538,0.281-0.656
			c-0.047-0.117,0.047-0.187,0.234-0.163c0.187,0.024,0.432-0.023,0.737-0.215c0.298-0.187,0.375-0.795,0.444-0.913
			c0.07-0.125,0.14-0.359,0.351-0.195c0.211,0.163,0.562,0.149,0.725-0.047c0.175-0.187,0.099-0.398,0.076-0.562
			c-0.029-0.163,0.071-0.257,0.135-0.285c0.082-0.019,0.151-0.304-0.111-0.328c-0.264-0.024-0.351-0.047-0.544-0.117
			c-0.181-0.071-0.328,0.14-0.229,0.234c0.094,0.094-0.175,0.238-0.263,0.378c-0.094,0.14-0.047,0.515-0.286,0.444
			c-0.229-0.071-0.252-0.491-0.229-0.706c0.023-0.21-0.146-0.398-0.375-0.375c-0.246,0.024-0.41,0.117-0.474-0.047
			c-0.076-0.163,0.229-0.281,0.041-0.421c-0.187-0.148-0.731-0.663-0.913-0.569c-0.193,0.094-0.521,0.687-0.193,0.826
			c0.333,0.14,0.824,0.444,0.421,0.753c-0.398,0.304-0.082,0.526-0.38,0.656c-0.298,0.129-0.082-0.293-0.76-0.293
			c-0.667,0-0.93-0.085-1.182-0.211c-0.252-0.129-0.755-0.129-0.971-0.085c-0.205,0.039-0.252,0.257-0.123,0.46
			c0.123,0.219-0.17,0.257-0.17,0.257s-0.55-0.378-0.836-0.378c-0.298,0-0.767-0.043-0.848-0.21
			c-0.082-0.172-0.345-0.421-0.767-0.465c-0.415-0.047-0.755-0.297-1.305-0.297s-1.176-0.21-1.475-0.172
			c-0.298,0.043-0.632,0.3-0.802,0.339c-0.17,0.043-0.38-0.21-0.544,0.082c-0.175,0.3-0.298,0.421-0.474,0.172
			c-0.17-0.253-1.299-0.55-2.065-0.593c-0.755-0.039-1.392-0.082-2.025-0.34c-0.632-0.25-1.48,0-1.726,0.09
			c-0.252,0.082-0.533,0.281-0.778,0.542c-0.234,0.269-0.369,0.241-0.521,0.269c-0.17,0.024-0.509,0.293-0.087,0.453
			c0.421,0.156,0.609,0.262,0.796,0.449c0.187,0.187,0.456,0.503,0.035,0.398c-0.433-0.106-0.591-0.262-0.878-0.21
			c-0.293,0.055-0.398,0.421-0.269,0.64c0.129,0.21,0.375,0.316,0.632,0.316c0.269,0,0.795-0.265,0.795-0.054
			c0,0.21-0.052,0.557-0.281,0.64c-0.246,0.074-0.62,0.21-0.936,0.398c-0.316,0.187,0.059,0.48,0.316,0.635
			c0.275,0.16,0.772,0.293,0.725,0.585c-0.052,0.293,0.076,0.398,0.474,0.265c0.398-0.137,1.117-0.429,0.555,0.262
			c-0.555,0.69-1.082,1.065-1.357,1.17c-0.257,0.106-0.55,0.265-0.421,0.347c0.129,0.082,0.163,0.05,0.579-0.137
			c0.427-0.187,1.018-0.421,1.386-0.819c0.375-0.398,1.006-0.635,0.901-0.878c-0.1-0.238,0.246-0.667,0.351-0.718
			c0.099-0.054,0.205-0.054,0.076,0.215c-0.134,0.265-0.158,0.421-0.076,0.421c0.076,0,0.129-0.074,0.451-0.234
			c0.31-0.163,0.421-0.238,0.421-0.351c0-0.106,0.076-0.262,0.345-0.179c0.264,0.074,0.509,0.398,0.983,0.472
			c0.474,0.082,0.925,0,1.223,0.187c0.286,0.187,0.345,0.347,0.661,0.293c0.316-0.05,0.533,0.265,0.737,0.609
			c0.222,0.347,0.673,1.568,1.018,1.997c0.345,0.421,0.205,0.421,0.257,0.69c0.052,0.261,0.14,0.421,0.293,0.713
			c0.158,0.293,0.451,1.381,0.48,2.227c0.023,0.85,0.187,1.517,0.526,2.071c0.345,0.557,0.567,0.982,0.878,1.038
			c0.321,0.05,0.432,0.187,0.562,0.609c0.129,0.425,0.503,1.56,0.684,1.818c0.181,0.265,0.755,1.435,0.942,1.307
			c0.175-0.129,0.024-0.363-0.187-0.628c-0.21-0.262-0.41-0.913-0.679-1.303c-0.257-0.387-0.486-0.886-0.31-0.991
			c0.181-0.106,0.503,0.679,0.701,0.991c0.217,0.316,0.79,1.147,1.1,1.619c0.31,0.468,0.498,0.651,0.421,1.041
			c-0.082,0.394,0.462,0.757,0.989,1.072c0.515,0.309,1.088,0.491,1.217,0.566c0.14,0.082,0.316,0.106,0.444-0.097
			c0.129-0.211,0.368,0.05,0.497,0.257c0.129,0.21,0.626,0.573,0.942,0.573c0.304,0,0.515,0.179,0.626,0.468
			c0.106,0.285,0.175,0.706,0.409,0.812c0.24,0.101,0.444,0.335,0.708,0.441c0.258,0.106,0.234,0.156,0.527-0.078
			c0.281-0.234,0.538-0.074,0.597,0c0.047,0.078,0.211-0.074,0.024-0.262c-0.187-0.184-0.363-0.184-0.708-0.101
			c-0.333,0.078-0.304,0.207-0.59-0.156c-0.286-0.371-0.316-0.265-0.264-0.702c0.052-0.444,0.415-1.229,0.076-1.229
			c-0.333,0-0.89,0.028-1.071,0.05s-0.333-0.05-0.228-0.309c0.099-0.265,0.304-0.265,0.304-0.679c0-0.418,0.269-0.913-0.181-0.807
			c-0.444,0.106-0.498,0.34-0.597,0.624c-0.1,0.281-0.24,0.234-0.444,0.257c-0.205,0.024-0.626,0.211-0.883-0.234
			c-0.264-0.444-0.468-0.835-0.392-1.197c0.076-0.363,0.023-0.734,0.047-1.096c0.029-0.363,0.111-0.679,0.298-0.784
			c0.175-0.106,0.93-0.437,1.275-0.309c0.34,0.129,0.468,0.234,0.387-0.078c-0.082-0.316,0.158-0.285,0.468-0.262
			c0.316,0.024,0.889-0.106,1.018,0.21c0.129,0.309,0.047,0.702,0.205,0.987c0.158,0.288,0.368,0.574,0.521,0.546
			c0.163-0.023,0.269-0.418,0.14-0.757c-0.14-0.339-0.392-1.01-0.345-1.275c0.052-0.261,0.234-0.55,0.579-0.701
			c0.34-0.156,0.936-0.55,0.878-1.045c-0.052-0.491,0.035-1.096,0.392-1.194c0.368-0.106,0.942-0.499,0.918-0.994
			c-0.024-0.491,0.229-0.784,0.491-0.784s0.24,0,0.439-0.152c0.217-0.16,0.264,0,0.135,0.257c-0.135,0.262-0.029,0.34,0.106,0.366
			c0.134,0.024,0.182-0.234,0.445-0.421c0.264-0.179,0.597-0.309,0.755-0.387c0.158-0.082,0.005-0.503-0.392-0.472
			c-0.322,0.028-0.562,0-0.585-0.101c-0.023-0.106,0.211-0.261,0.211-0.55c0-0.285-0.345-0.495-0.474-0.444
			c-0.122,0.055-0.597,0.468-0.725,0.679c-0.135,0.21-0.269,0.184-0.345,0.129c-0.076-0.05-0.024-0.363,0.345-0.597
			c0.357-0.234,0.521-0.574,0.802-0.624c0.292-0.055,0.755,0.05,0.994,0.05c0.234,0,0.474,0.054,0.573-0.156
			c0.106-0.21,0.205-0.394,0.363-0.34c0.163,0.05,0.023,0.316-0.106,0.679s-0.304,0.573-0.304,0.807
			c0,0.234,0.252,0.156,0.491,0.106c0.234-0.055,0.597,0.106,0.731,0.285c0.123,0.184,0.333,0,0.415-0.156
			c0.082-0.16,0.135-0.468-0.082-0.522c-0.211-0.05-0.363-0.468-0.678-0.491c-0.304-0.028-0.281-0.156-0.105-0.293
			c0.182-0.129,0.451-0.234,0.182-0.671c-0.252-0.444-0.106-0.394-0.281-0.656c-0.182-0.257-0.152-0.628-0.597-0.522
			c-0.451,0.106-0.421-0.179-0.55-0.309c-0.129-0.137-0.205-0.394-0.052-0.55c0.152-0.16,0.052-0.16-0.152-0.34
			c-0.217-0.184-0.421-0.546-0.392-0.757C425.156-81.378,424.986-81.658,424.611-80.991z"/>
		<path id="XMLID_305_" style="fill:#FFFFFF;" d="M413.8-85.126c0.222-0.106,0.498-0.339,0.919-0.184
			c0.415,0.152,0.591,0.257,0.779,0.129c0.187-0.129,0.55-0.468,0.187-0.679c-0.375-0.21-0.661-0.339-0.708-0.623
			c-0.052-0.288-0.257-0.597-0.439-0.679c-0.187-0.078-0.392,0.156-0.293,0.316c0.106,0.156-0.099,0.179-0.281,0
			c-0.187-0.184-0.55-0.316-0.79-0.394c-0.228-0.074-0.498,0.054-0.836-0.106c-0.333-0.156-0.462-0.519-0.702-0.444
			c-0.234,0.082-0.444-0.05-0.644-0.179c-0.217-0.129-0.503,0.028-0.609,0.106c-0.099,0.074,0.193,0.21-0.052,0.444
			c-0.228,0.234-0.673,0.542-0.304,0.807c0.357,0.257,0.357,0.519,0.854,0.285c0.498-0.234,0.55-0.573,0.685-0.573
			c0.129,0-0.035,0.491,0.158,0.734c0.175,0.234,0.333,0.905,0.954,0.831c0.21-0.078,0.298,0.156,0.375,0.234
			C413.122-85.02,413.198-84.841,413.8-85.126z"/>
		<path id="XMLID_304_" style="fill:#FFFFFF;" d="M416.415-85.075c0.175-0.016,0.41,0.024,0.521,0.078
			c0.106,0.05,0.152,0,0.304-0.16c0.158-0.152,0.076-0.257-0.175-0.331c-0.269-0.082-0.521-0.137-0.76-0.031
			C416.07-85.414,416.123-85.052,416.415-85.075z"/>
		<path id="XMLID_303_" style="fill:#FFFFFF;" d="M415.649-86.795c0.123,0.066,0.398,0.152,0.521,0.335
			c0.135,0.187,0.322,0.21,0.579,0c0.258-0.207,0.293-0.335,0.129-0.546c-0.158-0.203,0.187-0.55-0.181-0.573
			c-0.369-0.028-0.602-0.156-0.994,0.184C415.31-87.056,415.421-86.927,415.649-86.795z"/>
		<path id="XMLID_302_" style="fill:#FFFFFF;" d="M419.486-82.938c0.094-0.16,0.152-0.784,0.421-0.679
			c0.257,0.106,0.62,0.285,0.878,0.444c0.269,0.156,0.474,0.308,0.21,0.519c-0.257,0.21-0.491-0.074-0.573-0.234
			c-0.082-0.156-0.234,0-0.31,0.184c-0.076,0.179-0.24,0.316-0.474,0.129C419.411-82.758,419.411-82.808,419.486-82.938z"/>
		<path id="XMLID_301_" style="fill:#FFFFFF;" d="M422.224-83.226c0.111-0.082,0.333-0.074,0.55,0.16
			c0.205,0.234,0.573,0.519,0.93,0.702c0.368,0.179,0.602,0.21,0.679,0.285c0.076,0.078,0.444,0.078,0.24-0.129
			c-0.217-0.21-0.655-0.444-0.597-0.573c0.047-0.132,0.573,0.207,0.725,0.34c0.152,0.129,0.257-0.05,0.34-0.187
			c0.082-0.129-0.059-0.519-0.34-0.671c-0.293-0.16-0.76-0.656-0.632-0.838c0.135-0.179,0.34-0.106,0.574,0.234
			c0.234,0.34,0.421,0.807,0.684,0.394c0.257-0.418,0.649-0.807,0.281-0.838c-0.357-0.024-0.486-0.363-0.831-0.413
			c-0.333-0.054-0.498-0.023-0.649-0.21c-0.152-0.184-0.129-0.386,0.052-0.468c0.175-0.078,0.123-0.418-0.263-0.597
			c-0.387-0.184-0.937-0.34-1.17-0.55c-0.24-0.207-0.503-0.418-0.813-0.418c-0.31,0-0.468,0.129-0.778,0.21
			c-0.316,0.078-0.398,0-0.316-0.339c0.076-0.34-0.028-0.55-0.339-0.55c-0.316,0-0.567,0.499-0.567,0.604
			c0,0.097,0.017,0.363-0.129,0.34c-0.164-0.031-0.111-0.316,0.017-0.604c0.129-0.285,0.035-0.34-0.286-0.262
			c-0.31,0.082-0.749,0.187-0.825,0.527c-0.082,0.34-0.035,0.987,0.305,1.01c0.345,0.031,0.451,0.137,0.498,0.21
			c0.052,0.078,0.626,0.055,1.012,0.129c0.392,0.082,0.713,0.137,0.713-0.024c0-0.156,0.229-0.179,0.304,0.054
			c0.082,0.234,0.24,0.437,0.55,0.491c0.316,0.05,0.491,0.156,0.439,0.444c-0.047,0.285,0.106,0.468-0.199,0.624
			c-0.321,0.16,0.416,0.499-0.111,0.444c-0.515-0.05-0.55-0.179-0.702-0.028c-0.158,0.156-0.029,0.316,0.082,0.472
			C421.757-83.098,421.932-83.015,422.224-83.226z"/>
		<path id="XMLID_300_" style="fill:#FFFFFF;" d="M417.316-87.314c0,0.191-0.024,0.281,0.029,0.413
			c0.052,0.129,0.187,0.234,0.368,0.129c0.182-0.106,0.521-0.468,0.649-0.542c0.129-0.082,0.316-0.421,0.029-0.444
			c-0.286-0.031-0.345-0.055-0.649-0.031C417.421-87.758,417.316-87.813,417.316-87.314z"/>
		<path id="XMLID_299_" style="fill:#FFFFFF;" d="M428.555-82.364c0.234,0.309,0.521,0.784,0.725,0.784
			c0.217,0,0.474-0.082,0.55,0.129c0.082,0.21,0.24,0.574,0.415,0c0.182-0.573,0.322-0.702,0.286-0.967
			c-0.023-0.257,0-0.363,0.164-0.496c0.152-0.129,0.304-0.257,0.304-0.441c0-0.179,0.269-0.285,0.368-0.34
			c0.106-0.05,0.451-0.351,0.574-0.297c0.129,0.05,0.181-0.031,0.474-0.265c0.281-0.234,0.55-0.444,0.55-0.647
			c0-0.21,0.152-0.265,0.252-0.16c0.111,0.106,0.474,0.184,0.79,0c0.31-0.179,0.907-0.597,1.036-0.647
			c0.129-0.054,0.55-0.34,0.444-0.734c-0.099-0.39-0.333-0.234-0.175-0.573c0.152-0.34,0.152-0.444,0.357-0.421
			c0.217,0.031,0.234-0.234,0.345-0.363c0.099-0.129,0.047-0.496,0-0.753c-0.052-0.265-0.286-0.288-0.029-0.757
			c0.257-0.472,0.257-0.519,0.257-0.807c0-0.293,0.187-0.495,0.368-0.656c0.181-0.156,0.415-0.413,0.807-0.597
			c0.392-0.179,0.544-0.156,0.316-0.519c-0.24-0.371-0.345-0.137-0.731-0.082c-0.392,0.05-1.041,0.262-1.298,0.34
			c-0.264,0.082-0.685,0.316-0.866,0.413c-0.187,0.106-0.316-0.047-0.076-0.234c0.229-0.179,0.702-0.285,0.779-0.468
			c0.076-0.179,0.597-0.468,0.076-0.542c-0.521-0.082-0.825-0.21-1.223-0.21c-0.387,0-0.649,0.05-0.89-0.106
			c-0.234-0.16-0.439-0.257-0.807-0.184c-0.357,0.078-0.802,0.024-0.93,0.078c-0.14,0.05-0.292-0.207-0.573-0.106
			c-0.293,0.106-0.421,0.285-0.375,0.366c0.052,0.078-0.146,0-0.521-0.028c-0.363-0.024-0.597,0.05-0.778,0.05
			c-0.182,0-0.076,0.316-0.474,0.288c-0.392-0.024-0.772-0.054-0.854-0.054c-0.082,0-0.187,0-0.725,0.137
			c-0.55,0.129-0.814,0.129-1.123,0.152c-0.316,0.028-0.76,0.132-0.632,0.39c0.135,0.265-0.024,0.34-0.491,0.34
			c-0.468,0-0.965,0.234-0.965,0.316c0,0.078,0.052,0.207,0.368,0.152c0.304-0.05,0.439,0.137,0.158,0.371
			c-0.286,0.234-0.679,0.258-1.001,0.285c-0.304,0.023-1.041,0.16-0.725,0.418c0.316,0.262,0.626,0.262,0.626,0.316
			c0,0.047-0.205,0.074,0.052,0.281c0.257,0.21,0.421,0.421,0.474,0.55c0.047,0.129,0.252,0.106,0.486-0.078
			c0.234-0.187,1.182-0.05,1.539,0.184c0.368,0.234,0.971,0.858,0.994,1.326c0.023,0.468-0.076,0.862,0.152,0.862
			c0.24,0,0.626-0.491,0.948-0.024c0.304,0.468,0.462,1.092,0,1.299c-0.474,0.21-0.731,0.34-0.661,0.812
			C427.753-83.811,428.134-82.926,428.555-82.364z"/>
		<path id="XMLID_298_" style="fill:#FFFFFF;" d="M445.819-79.295c-0.117,0.207-0.252,0.3-0.375,0.241
			c-0.123-0.054-0.146-0.035-0.404,0.039c-0.269,0.07-0.439,0.148-0.544,0.184c-0.111,0.039-0.217-0.055-0.321-0.09
			c-0.099-0.039-0.193-0.094-0.328,0.054c-0.146,0.144-0.146,0.109-0.234,0.035c-0.087-0.07-0.21-0.09-0.304-0.316
			c-0.082-0.222,0.129-0.573,0.129-0.737c0-0.172,0.058-0.41,0.07-0.538c0.017-0.137-0.106-0.078-0.229,0.05
			c-0.129,0.129-0.509,0.187-0.439,0.558c0.064,0.375,0.21,0.554,0.21,0.784c0,0.222,0.017,0.444-0.106,0.421
			c-0.123-0.019-0.544,0.094-0.702,0.168c-0.163,0.078-0.234,0.129-0.304,0.371c-0.064,0.246-0.088,0.187-0.24,0.226
			c-0.163,0.035-0.498,0.129-0.533,0.335c-0.035,0.199-0.117,0.144-0.286,0.316c-0.152,0.163-0.175,0.129-0.298,0.106
			c-0.123-0.019-0.187,0.074-0.152,0.226c0.029,0.149-0.023,0.071-0.21,0.094c-0.199,0.019-0.375,0.055-0.533,0.055
			c-0.158,0-0.105,0.257,0.094,0.316c0.193,0.05,0.368,0.222,0.421,0.39c0.053,0.163,0.106,0.148,0.193,0.222
			c0.088,0.07,0.24,0.293,0.211,0.515c-0.035,0.23-0.094,0.3-0.106,0.468c-0.017,0.163-0.106,0.163-0.392,0.113
			c-0.275-0.059-0.503-0.094-0.702-0.129c-0.193-0.043-0.328-0.059-0.51,0.016c-0.175,0.078-0.21,0-0.357,0.094
			c-0.135,0.094-0.052,0.257,0.017,0.387c0.076,0.129,0.024,0.375,0.052,0.503c0.047,0.129-0.07,0.429-0.123,0.597
			c-0.052,0.163,0.094,0.351,0.052,0.515c-0.029,0.172,0.041,0.3,0.182,0.3c0.141,0,0.462-0.035,0.533,0.129
			c0.071,0.168,0.193,0.168,0.328,0.094c0.146-0.078,0.509,0.129,0.62-0.094c0.106-0.222,0.369-0.316,0.433-0.499
			c0.071-0.187,0.31-0.222,0.193-0.39c-0.099-0.172-0.005-0.281,0.094-0.394c0.106-0.109,0.281-0.309,0.439-0.402
			c0.158-0.094,0.228-0.117,0.245-0.375c0.024-0.257,0.024-0.241,0.199-0.335c0.175-0.094,0.275-0.094,0.38,0
			c0.106,0.094,0.246,0.078,0.34,0.019c0.082-0.054,0.187-0.148,0.245-0.148c0.052,0,0.117-0.074,0.158-0.168
			c0.029-0.094,0.14-0.113,0.246-0.035c0.099,0.074,0.175,0.203,0.275,0.479c0.117,0.281,0.34,0.519,0.427,0.597
			c0.088,0.074,0.264,0.059,0.403,0.187c0.147,0.129,0.41,0.495,0.445,0.538c0.029,0.035,0.029,0.238-0.024,0.386
			c-0.052,0.152-0.082,0.331,0.07,0.187c0.158-0.148,0.129-0.241,0.158-0.277c0.04-0.039,0.158-0.21,0.04-0.281
			c-0.123-0.074-0.123-0.203-0.07-0.297c0.047-0.094,0.151-0.054,0.222-0.019c0.076,0.035,0.158,0.148,0.199,0.094
			c0.029-0.059-0.059-0.187-0.146-0.238c-0.088-0.059-0.246-0.172-0.31-0.222c-0.071-0.059,0-0.172-0.217-0.187
			c-0.205-0.024-0.298-0.207-0.369-0.316c-0.07-0.113-0.187-0.394-0.316-0.444c-0.118-0.059-0.21-0.129-0.14-0.316
			c0.076-0.187,0-0.222,0.158-0.316c0.158-0.094,0.217-0.019,0.193,0.144c-0.017,0.172,0.321-0.071,0.375,0.187
			c0.052,0.257,0.398,0.538,0.503,0.616c0.106,0.07,0.41,0.179,0.498,0.273s0.322,0.207,0.175,0.41
			c-0.146,0.207,0.041,0.316,0.158,0.522c0.129,0.203,0.246,0.496,0.246,0.702c0,0.203,0.123,0.375,0.281,0.297
			c0.163-0.074,0.597-0.187,0.491-0.41c-0.106-0.222-0.246-0.331-0.328-0.519c-0.094-0.184-0.035-0.351,0.099-0.257
			c0.146,0.094,0.052-0.3,0.375-0.257c0.31,0.035,0.275,0.285,0.515,0.144c0.234-0.14,0.609-0.179,0.433-0.316
			c-0.175-0.129-0.298-0.246-0.228-0.425c0.082-0.183-1.251-4.235-1.251-4.235L445.819-79.295z"/>
		<path id="XMLID_297_" style="fill:#FFFFFF;" d="M447.75-74.275c0-0.152,0.029-0.281,0.135-0.355
			c0.094-0.078,0.199-0.304,0.281-0.48c0.076-0.175,0.228-0.101,0.304-0.351c0.076-0.257,0.099-0.433,0.322-0.359
			c0.228,0.078,0.351,0.281,0.275,0.433c-0.071,0.148,0,0.276,0.129,0.406c0.129,0.121,0.281-0.078,0.433-0.257
			c0.151-0.175,0.222-0.328,0.047-0.351c-0.175-0.024,0.082-0.304,0.304-0.304c0.234,0,0.386,0.227,0.21,0.402
			c-0.187,0.183-0.129,0.432,0.099,0.479c0.229,0.055,0.351,0.304,0.579,0.382c0.222,0.074,0.48,0.304,0.298,0.531
			c-0.175,0.23-0.275,0.152-0.649,0.129c-0.387-0.024-0.737-0.305-1.117-0.305c-0.38,0-0.456,0.152-0.608,0.281
			c-0.146,0.125-0.351-0.05-0.603,0.199c-0.257,0.253-0.328,0.382-0.479,0.406c-0.152,0.028-0.462,0.331-0.234,0.635
			c0.234,0.3,0.585,0.453,0.713,0.581c0.129,0.129,0.252-0.129,0.579-0.055c0.328,0.078,0.351,0.23,0.656,0.055
			c0.31-0.175,0.486-0.175,0.333,0c-0.158,0.175-0.105,0.531-0.105,0.784c0,0.25-0.175,0.531-0.228,0.76
			c-0.053,0.226,0.076,0.328,0.158,0.554c0.071,0.23-0.082,0.737,0.047,0.937c0.129,0.207,0.257,0.511,0.375,0.76
			c0.129,0.253,0.462,0.382,0.538,0.862c0.076,0.479,0.175,0.858,0.451,1.01c0.281,0.152,0.415,0.456,0.462,0.76
			c0.047,0.305,0,0.838,0.152,1.065c0.152,0.23-0.023,0.527,0.381,0.453c0.404-0.078,0.982-0.351,1.386-0.656
			c0.41-0.304,1.112-0.862,1.369-0.936c0.257-0.078,0.351-0.328,0.456-0.585c0.106-0.253,0.304-0.351,0.409-0.527
			c0.099-0.184,0.123-0.382-0.076-0.687c-0.205-0.304-0.533-0.25-0.567-0.479c-0.023-0.226-0.175-0.507-0.298-0.378
			c-0.129,0.121-0.305,0.503-0.556,0.527c-0.252,0.028-0.387,0.028-0.387-0.352c0-0.382-0.024-0.432-0.222-0.479
			c-0.199-0.054-0.433-0.304-0.533-0.557c-0.106-0.257-0.205-0.41,0.047-0.609c0.264-0.203,0.31,0.125,0.38,0.304
			c0.082,0.175,0.439,0.429,0.515,0.632c0.076,0.207,0.328,0.406,0.649,0.328c0.333-0.074,0.614-0.074,0.661,0.101
			c0.047,0.179,0.152,0.378,0.462,0.304c0.298-0.078,0.398-0.078,0.474,0.05c0.076,0.129,0.275,0.078,0.538,0.023
			c0.245-0.047,0.193,0.129,0.503,0c0.304-0.121,0.38,0.031,0.433,0.281c0.047,0.253,0.123,0.328,0.275,0.328
			c0.146,0,0.047,0.175,0.076,0.359c0.023,0.175,0.123,0.425,0.351,0.425c0.234,0,0.351-0.226,0.503-0.273
			c0.152-0.054,0.129,0.121,0.082,0.503c-0.047,0.378-0.024,1.064,0.181,1.567c0.199,0.507,0.503,1.139,0.55,1.466
			c0.052,0.335,0.152,0.89,0.304,0.89s0.275-0.203,0.486-0.479c0.193-0.281,0.222-0.355,0.246-0.635
			c0.024-0.277,0.21-0.351,0.129-0.71c-0.07-0.351,0-0.656,0.175-0.682c0.181-0.024,0.409-0.222,0.409-0.429
			c0-0.203,0.152-0.355,0.351-0.507c0.199-0.152,0.456-0.277,0.562-0.656c0.094-0.382,0.199-0.406,0.398-0.359
			c0.21,0.054,0.409,0.031,0.462-0.152c0.052-0.175,0.275-0.226,0.298,0.054c0.023,0.281,0.099,0.402,0.328,0.531
			c0.234,0.125,0.304,0.456,0.304,0.687c0,0.222-0.07,0.858,0.187,0.831c0.252-0.024,0.351-0.609,0.526-0.406
			c0.175,0.207,0.152,0.687,0.229,0.89c0.076,0.199,0.93-0.304,0.93-0.304l1.393-0.226l0.099-0.055c0,0-0.649-0.936-0.602-1.112
			c0.052-0.179,0.427-0.402,0.602-0.659c0.182-0.253,0.357-0.199,0.38,0.074c0.035,0.281,0.035,0.253-0.175,0.51
			c-0.205,0.25-0.129,0.273,0.035,0.401c0.14,0.129,0.398-0.226,0.503-0.304c0.094-0.074-0.059-0.354-0.106-0.456
			c-0.047-0.097,0-0.328,0.158-0.378c0.152-0.047,0.526-0.078,0.725-0.253c0.205-0.175,0.59-0.05,0.895-0.507
			c0.305-0.453,0.556-1.112,0.725-1.264c0.175-0.152,0.304-0.686,0.304-0.991c0-0.297-0.229-0.729-0.351-1.057
			c-0.123-0.328-0.479-0.534-0.123-0.784c0.345-0.253,0.398-0.382,0.527-0.382c0.123,0,0.228-0.304,0-0.328
			c-0.229-0.028-0.602,0.102-0.702,0.152c-0.106,0.047-0.129-0.05-0.264-0.304c-0.118-0.257,0.035-0.378,0.286-0.378
			c0.252,0,0.602-0.89,0.679-0.609c0.076,0.281,0.123,0.402,0.351,0.402c0.228,0,0.38,0.023,0.439,0.304
			c0.047,0.281,0.381,0.687,0.304,1.038c-0.076,0.355-0.076,0.635,0.222,0.484c0.304-0.152,0.526-0.41,0.579-0.682
			c0.052-0.281-0.275-0.534-0.451-0.737c-0.175-0.199-0.175-0.382,0-0.526c0.175-0.152,0.374-0.382,0.578-0.64
			c0.199-0.25,0.182-0.609,0.38-0.425c0.199,0.175,0.433,0.273,0.76-0.129c0.328-0.406,1.006-1.24,1.14-1.697
			c0.129-0.456,0.228-0.734,0.193-1.038c-0.023-0.304,0.164-0.304,0.164-0.812c0-0.503-0.211-0.734-0.357-0.734
			c-0.158,0-0.286,0.207-0.585,0.023c-0.304-0.175-0.579-0.152-0.228-0.448c0.351-0.304,0.96-0.815,1.135-1.143
			c0.182-0.328,0.31-0.554,0.737-0.609c0.433-0.051,0.831,0.23,1.094,0.23c0.252,0,0.275-0.101,0.298-0.207
			c0.029-0.097,0.076-0.097,0.205-0.097c0.123,0,0.351,0.151,0.175,0.304c-0.175,0.152-0.076,0.226,0.252,0.175
			c0.328-0.047,0.433-0.175,0.585-0.152c0.152,0.028,0.222-0.23,0.129-0.253c-0.106-0.024-0.106-0.175,0.052-0.226
			c0.152-0.054,0.328-0.253,0.527-0.503c0.199-0.257,0.351-0.207,0.427-0.152c0.076,0.047,0.538-0.152,0.404,0.074
			c-0.123,0.222-0.017,0.406,0.181,0.253c0.199-0.152,0.152,0.152-0.199,0.456c-0.363,0.304-0.486,0.632-0.866,0.784
			c-0.375,0.152-0.503,0.706-0.398,1.065c0.099,0.351,0.123,0.831,0.199,1.158c0.076,0.331,0.029,0.659,0.198,0.585
			c0.175-0.078,0.503-0.479,0.533-0.655c0.024-0.184,0.31-0.129,0.333-0.382c0.017-0.257,0.328-0.203,0.304-0.531
			c-0.035-0.328,0.024-0.558,0.269-0.585c0.263-0.023,0.082-0.382,0.035-0.734c-0.053-0.355,0.175-0.682,0.451-0.812
			c0.275-0.125,0.486-0.078,0.637-0.199c0.152-0.129,0.375-0.152,0.503-0.023c0.129,0.12,0.281,0.175,0.479-0.106
			c0.199-0.277,0.709-0.328,0.931-0.558c0.229-0.226,0.567-0.281,0.819-0.226c0.252,0.05,0.375-0.23,0.199-0.48
			c-0.175-0.253-0.351-0.382-0.099-0.456c0.252-0.078,0.579-0.129,0.474-0.382c-0.099-0.25,0.181-0.328,0.286-0.129
			c0.094,0.207,0.246,0.082,0.433,0.082c0.175,0,0.328,0.375,0.578,0.48c0.252,0.101,0.451-0.028,0.503-0.179
			c0.047-0.152-0.029-0.277,0.252-0.328c0.281-0.055,0.387-0.23,0.234-0.429c-0.158-0.203-0.462-0.331-0.69-0.304
			c-0.222,0.024-0.474-0.05-0.679-0.226c-0.199-0.175-0.995-0.48-1.217-0.609c-0.222-0.129-0.656-0.304-1.018-0.359
			c-0.351-0.047-0.778-0.175-0.93-0.074c-0.146,0.106-0.146,0.152-0.123,0.331c0.023,0.175-0.052,0.406-0.229,0.351
			c-0.181-0.05-0.356-0.48-0.69-0.503c-0.328-0.028-0.983-0.18-1.293,0.023c-0.292,0.207-0.403,0.281-0.479,0.024
			c-0.076-0.25-0.304-0.858-0.878-0.807c-0.585,0.047-1.123,0.23-1.345,0.129c-0.229-0.106-0.229-0.788-0.731-0.737
			c-0.515,0.055-0.866,0.23-0.994-0.023c-0.123-0.257-0.351-0.609-0.527-0.609c-0.175,0-0.556,0.429-0.556,0.687
			c0,0.25,0,0.351-0.234,0.425c-0.229,0.078-0.609-0.047-0.807-0.024c-0.199,0.024-0.702-0.226-0.854,0.152
			c-0.152,0.382-0.21,0.23-0.456,0.047c-0.257-0.175-0.433-0.273-0.386-0.554c0.052-0.277-0.351-0.526-0.702-0.581
			c-0.363-0.051-0.632-0.152-0.69,0.129c-0.047,0.277-0.304,0.253-0.479,0.222c-0.175-0.023-0.878-0.273-1.182-0.328
			c-0.305-0.047-0.866,0-0.989-0.152c-0.129-0.152-0.152-0.425-0.462-0.152c-0.304,0.281-0.328-0.121,0.059-0.328
			c0.375-0.203,0.679-0.25,0.679-0.554c0-0.304-0.129-0.479-0.579-0.479c-0.462,0-1.217,0.199-1.117-0.078
			c0.099-0.281,0.023-0.41-0.275-0.41c-0.304,0-0.637-0.023-0.813,0.207c-0.182,0.226-0.205,0.175-0.456,0.226
			c-0.257,0.055-0.106,0.406-0.48,0.382c-0.375-0.024-0.655-0.207-0.982-0.078c-0.333,0.129-0.767,0.175-1.217,0.351
			c-0.456,0.184-1.217,0.41-1.041,0.64c0.175,0.226-0.129,0.273-0.404,0.273s-0.602,0.023-0.602,0.152
			c0,0.129,0.328,0.406,0.152,0.557c-0.187,0.152-0.609-0.48-0.866-0.382c-0.257,0.106-0.38,0.335-0.403,0.51
			c-0.029,0.175-0.351,0.097-0.304-0.23c0.052-0.328-0.199-0.425-0.298-0.151c-0.106,0.281-0.059,1.112,0.047,1.393
			c0.106,0.281,0.228,1.088,0.029,1.341c-0.205,0.25-0.357,0.456-0.743,0.508c-0.38,0.047-0.456-0.097-0.152-0.226
			c0.304-0.129,0.562-0.328,0.562-0.737c0-0.406-0.082-1.19-0.175-1.287c-0.106-0.101-0.082-0.328,0.017-0.585
			c0.111-0.253,0.052-0.429-0.252-0.382c-0.305,0.054-0.555,0.054-0.679,0.41c-0.123,0.351-0.533,0.656-0.304,1.06
			c0.228,0.41,0.479,0.635,0.351,0.713c-0.123,0.071-0.855-0.335-1.006-0.456c-0.158-0.129-0.562-0.184-0.79-0.23
			c-0.222-0.05-0.451-0.028-0.245,0.198c0.199,0.23-0.052,0.23-0.264,0.23c-0.199,0-0.86,0.023-0.959,0.074
			c-0.099,0.054-0.328,0.129-0.328-0.024c0-0.152-0.199-0.355-0.632-0.05c-0.433,0.304-0.814,0.554-0.814,0.659
			c0,0.101-0.451,0.152-0.427-0.074c0.024-0.23-0.229-0.51-0.375-0.488c-0.152,0.031-0.409,0.257-0.257,0.382
			c0.152,0.129,0.029,0.433-0.152,0.484c-0.175,0.047-0.538,0.253-0.661,0.375c-0.129,0.129-0.732,0.737-1.159,0.64
			c-0.439-0.106-0.181-0.585-0.386-0.76c-0.205-0.175,0.076-0.304,0.386-0.175c0.304,0.121,0.533,0.351,0.983,0
			c0.451-0.359,0.099-0.609-0.199-0.76c-0.304-0.152-1.421-0.609-1.673-0.687c-0.252-0.074-0.175-0.76-1.14-0.682
			c-0.96,0.074-1.902,0.05-2.58,0.89c-0.684,0.831-1.27,1.536-1.468,1.895c-0.205,0.354-0.129,0.784-0.807,1.01
			c-0.69,0.23-0.767,0.585-0.767,1.088c0,0.511-0.047,1.143,0.439,1.065c0.479-0.074,0.755-0.331,0.831-0.554
			c0.076-0.23,0.328,0.074,0.275,0.378c-0.047,0.3,0.205,0.656,0.228,0.831c0.036,0.175,0.076,0.632,0.281,0.557
			c0.211-0.078,0.257-0.253,0.462-0.48c0.199-0.23,0.474-0.199,0.404-0.632c-0.076-0.433,0.047-0.503,0.175-0.557
			c0.123-0.05,0.526-0.378,0.222-0.554c-0.298-0.184-0.328-0.432-0.351-0.557c-0.023-0.129-0.123-0.378,0.252-0.562
			c0.38-0.175,0.637-0.632,0.708-0.858c0.082-0.23,0.328-0.406,0.614-0.406c0.275,0,0.679,0.129,0.351,0.382
			c-0.328,0.25-1.036,0.881-0.906,1.466c0.117,0.581,0.07,1.015,0.479,0.734c0.398-0.277,0.778-0.328,1.088-0.382
			c0.304-0.047,0.55,0.129,0.55,0.23c0,0.106-0.375,0.355-0.76,0.331c-0.375-0.028-0.725-0.152-0.725,0.125
			c0,0.281,0.245,0.281,0.175,0.609c-0.076,0.328-0.427,0.402-0.456,0.175c-0.023-0.222,0.129-0.581-0.082-0.526
			c-0.199,0.047-0.199,0.479-0.328,0.679c-0.129,0.203-0.175,0.433-0.017,0.562c0.146,0.121-0.134,0.07-0.286,0.273
			c-0.152,0.207,1.293,4.255,1.293,4.255L447.75-74.275z"/>
		<path id="XMLID_296_" style="fill:#FFFFFF;" d="M419.89-67.314c0.123,0,0.286-0.226,0.439-0.21
			c0.152,0.019,0.55,0.047,0.661,0.031c0.123-0.012,0.17,0.047,0.228,0.132c0.071,0.094,0.444,0.304,0.567,0.351
			s0.357,0.163,0.463,0.257c0.111,0.094,0.292,0.125,0.199,0.21c-0.088,0.094-0.199,0.066-0.387,0.066
			c-0.199,0-0.368-0.078-0.368-0.199c0-0.125-0.17-0.257-0.304-0.288c-0.135-0.028-0.286-0.028-0.351-0.152
			c-0.052-0.121-0.158-0.199-0.328-0.199c-0.17,0-0.567-0.074-0.416,0.094c0.152,0.163,0.035,0.288-0.129,0.241
			c-0.175-0.047-0.257-0.047-0.339-0.125C419.756-67.173,419.802-67.314,419.89-67.314z"/>
		<path id="XMLID_295_" style="fill:#FFFFFF;" d="M422.623-65.956c0.088,0,0.035-0.273,0.135-0.363
			c0.088-0.094,0.345-0.106,0.544-0.059c0.199,0.043,0.555,0.184,0.632,0.241c0.076,0.059,0.123,0.285-0.099,0.285
			c-0.229,0-0.264,0.019-0.368,0.14c-0.106,0.118-0.21,0.031-0.427,0c-0.205-0.035-0.345,0-0.456,0.012
			C422.482-65.679,422.529-65.956,422.623-65.956z"/>
		<path id="XMLID_294_" style="fill:#FFFFFF;" d="M421.733-66.077c-0.099-0.031-0.363-0.031-0.234,0.121
			c0.111,0.152,0.257,0.184,0.304,0.23c0.035,0.047,0.152,0.028,0.234,0c0.099-0.031,0-0.125-0.106-0.199
			C421.833-66.002,421.833-66.042,421.733-66.077z"/>
		<path id="XMLID_293_" style="fill:#FFFFFF;" d="M422.576-66.892c-0.023,0.055,0.059,0.164,0.135,0.164s0.175-0.074,0.146-0.18
			C422.833-67.012,422.623-67.001,422.576-66.892z"/>
		<path id="XMLID_292_" style="fill:#FFFFFF;" d="M424.454-66.167c-0.14,0-0.31,0.059-0.264,0.184
			c0.047,0.121,0.064,0.21,0.234,0.163c0.158-0.043,0.281-0.184,0.357-0.23c0.076-0.039,0.322-0.179,0.135-0.179
			C424.735-66.229,424.542-66.167,424.454-66.167z"/>
		<path id="XMLID_291_" style="fill:#FFFFFF;" d="M425.659-63.362c0.047,0.129,0.047,0.199,0.187,0.179
			c0.135-0.012,0.24-0.226,0.24-0.257c0-0.028-0.059-0.163-0.205-0.132C425.729-63.545,425.63-63.452,425.659-63.362z"/>
		<path id="XMLID_290_" style="fill:#FFFFFF;" d="M426.326-63.818c-0.135-0.09-0.146-0.137-0.041-0.195
			c0.106-0.062,0.17-0.199,0.17-0.226c0-0.031,0.14-0.066,0.199,0c0.052,0.059,0.088,0.152-0.076,0.226
			c-0.175,0.078-0.099,0.078-0.099,0.137C426.478-63.818,426.379-63.783,426.326-63.818z"/>
		<path id="XMLID_289_" style="fill:#FFFFFF;" d="M426.554-64.486c-0.012-0.047,0.024-0.117,0.106-0.117
			c0.094,0,0.217,0.028,0.199,0.152c-0.006,0.117-0.106,0.179-0.181,0.144C426.601-64.333,426.577-64.439,426.554-64.486z"/>
		<path id="XMLID_288_" style="fill:#FFFFFF;" d="M426.542-65.059c-0.088,0-0.152-0.137-0.064-0.199
			c0.099-0.059,0.052-0.23,0.182-0.117c0.14,0.106,0.234,0.179,0.117,0.257C426.653-65.043,426.624-65.059,426.542-65.059z"/>
		<path id="XMLID_287_" style="fill:#FFFFFF;" d="M426.209-65.395c-0.059,0-0.106-0.074-0.106-0.132
			c0-0.066,0.088-0.066,0.181-0.066c0.094,0,0.152,0.078,0.082,0.14C426.284-65.395,426.256-65.395,426.209-65.395z"/>
		<path id="XMLID_286_" style="fill:#FFFFFF;" d="M426.706-64.821c-0.035,0.047-0.076-0.106,0-0.132c0.076-0.031,0.123-0.09,0.123,0
			C426.829-64.86,426.782-64.89,426.706-64.821z"/>
		<path id="XMLID_285_" style="fill:#FFFFFF;" d="M425.811-65.85c-0.052-0.024-0.158-0.059-0.106-0.121
			c0.071-0.059,0.029-0.137,0.175-0.09c0.129,0.047,0.193,0.172,0.111,0.241C425.923-65.745,425.904-65.803,425.811-65.85z"/>
		<path id="XMLID_284_" style="fill:#FFFFFF;" d="M421.452-68.015c-0.129-0.023-0.094-0.191,0.029-0.281
			c0.111-0.082,0.175-0.14,0.175-0.005c0,0.132-0.047,0.234,0.017,0.293c0.059,0.059,0.234,0.039,0.135,0.117
			c-0.099,0.074-0.135,0.129-0.217,0.05C421.511-67.914,421.499-68.008,421.452-68.015z"/>
		<path id="XMLID_283_" style="fill:#FFFFFF;" d="M421.674-68.51c0.047-0.102,0.094-0.137,0.035-0.246
			c-0.052-0.106,0-0.175,0.099-0.117c0.099,0.059,0.24,0.132,0.205,0.304c-0.029,0.168-0.035,0.199,0.017,0.25
			c0.064,0.054-0.047,0.043-0.146,0.019C421.786-68.324,421.657-68.452,421.674-68.51z"/>
		<path id="XMLID_282_" style="fill:#FFFFFF;" d="M422.12-67.89c-0.082,0-0.111-0.117-0.035-0.16
			c0.076-0.039,0.106-0.132,0.152-0.05c0.052,0.085-0.059,0.179-0.059,0.191C422.178-67.89,422.137-67.89,422.12-67.89z"/>
		<path id="XMLID_281_" style="fill:#FFFFFF;" d="M422.447-67.574c-0.064-0.101-0.111,0.023-0.14-0.07
			c0.029-0.102,0.029-0.152,0.117-0.14c0.094,0.004,0.071,0.062,0.135,0.133c0.052,0.066,0.122,0.105,0.082,0.14
			C422.611-67.477,422.482-67.527,422.447-67.574z"/>
		<path id="XMLID_280_" style="fill:#FFFFFF;" d="M421.388-68.593c0.076,0,0.134-0.113,0.111-0.184
			c-0.017-0.062-0.064-0.133-0.146-0.082c-0.088,0.054-0.193,0.137-0.117,0.23C421.313-68.534,421.37-68.593,421.388-68.593z"/>
		<path id="XMLID_279_" style="fill:#FFFFFF;" d="M425.419-76.662c-0.106-0.106-0.286-0.156-0.363-0.234
			c-0.07-0.07-0.023-0.187,0.076-0.199c0.099-0.016,0.275,0.113,0.398,0.241c0.129,0.132,0.129,0.132,0.064,0.203
			C425.524-76.581,425.442-76.638,425.419-76.662z"/>
		<path id="XMLID_278_" style="fill:#FFFFFF;" d="M425.899-75.714c-0.087-0.039-0.193-0.203-0.047-0.304
			c0.14-0.097,0.182-0.012,0.199,0.129c0.012,0.148,0.117,0.16,0.094,0.324c-0.035,0.156-0.175,0.21-0.193,0.05
			C425.934-75.672,425.951-75.683,425.899-75.714z"/>
		<path id="XMLID_277_" style="fill:#FFFFFF;" d="M424.986-81.576c-0.106,0.012-0.228-0.109-0.082-0.246
			c0.14-0.129,0.187-0.187,0.21-0.023C425.15-81.686,425.115-81.588,424.986-81.576z"/>
		<path id="XMLID_276_" style="fill:#FFFFFF;" d="M420.511-82.033c0.094-0.094,0.099-0.156,0.152-0.203
			c0.064-0.043,0.123-0.23-0.041-0.219c-0.158,0.012-0.357,0.09-0.433,0.175c-0.07,0.09-0.106,0.269,0.059,0.328
			C420.423-81.892,420.435-81.962,420.511-82.033z"/>
		<path id="XMLID_275_" style="fill:#FFFFFF;" d="M421.891-84.494c-0.123,0-0.229-0.059-0.158-0.245
			c0.076-0.187,0.182-0.444,0.351-0.288c0.152,0.16,0.38,0.23,0.199,0.398C422.096-84.455,421.962-84.494,421.891-84.494z"/>
		<path id="XMLID_274_" style="fill:#FFFFFF;" d="M411.846-88.846c0.07-0.14,0.38-0.172,0.281-0.406
			c-0.099-0.226-0.082-0.6-0.363-0.472c-0.263,0.129-0.421,0.059-0.614,0.285c-0.181,0.234-0.392,0.491-0.55,0.51
			c-0.158,0.012-0.415-0.09-0.345,0.168c0.07,0.257,0.187,0.417,0.404,0.276c0.217-0.148,0.264-0.207,0.444-0.129
			c0.193,0.071,0.696-0.421,0.55-0.148c-0.146,0.276-0.087,0.464,0.094,0.234C411.916-88.761,411.799-88.761,411.846-88.846z"/>
		<path id="XMLID_273_" style="fill:#FFFFFF;" d="M411.928-88.426c0.146-0.047,0.21-0.101,0.269-0.276
			c0.059-0.175,0.129-0.257,0.304-0.273c0.175-0.012,0.34,0.234,0.498,0.316c0.152,0.085,0.31,0.215,0.38,0.246
			c0.07,0.028,0.479,0.028,0.468-0.102c-0.024-0.129-0.304-0.226-0.229-0.387c0.064-0.163,0.252-0.578,0.345-0.304
			c0.082,0.277,0,0.406,0.199,0.433c0.199,0.031,0.456-0.074,0.409,0.187c-0.035,0.257,0,0.604-0.21,0.604
			c-0.217,0-0.415-0.117-0.644-0.031c-0.24,0.09-0.538,0.304-0.713,0.246c-0.164-0.059-0.375-0.117-0.304-0.203
			c0.076-0.082,0.059-0.328-0.106-0.21c-0.175,0.109-0.293,0.082-0.567,0.082C411.753-88.098,411.782-88.386,411.928-88.426z"/>
		<path id="XMLID_272_" style="fill:#FFFFFF;" d="M417.194-88.07c0.246-0.028,0.398,0.059,0.474,0.078
			c0.088,0.012,0.222-0.207,0.029-0.335c-0.181-0.129-0.357-0.413-0.427-0.274c-0.076,0.144-0.182,0.257-0.264,0.316
			C416.942-88.227,417.088-88.051,417.194-88.07z"/>
		<path id="XMLID_271_" style="fill:#FFFFFF;" d="M416.609-88.398c-0.023-0.175,0.04-0.331,0.082-0.421
			c0.047-0.082,0.047-0.343-0.222-0.328c-0.275,0.012-0.304-0.187-0.474-0.028c-0.175,0.156-0.123,0.297-0.398,0.402
			c-0.275,0.101-0.229,0.14-0.286-0.016c-0.059-0.16-0.088-0.328-0.234-0.418c-0.14-0.085-0.34-0.028-0.269,0.199
			c0.07,0.234,0.345,0.406,0.375,0.534c0.035,0.129,0.187,0.175,0.439,0.156c0.24-0.012,0.427-0.012,0.486,0.078
			c0.059,0.082,0.24,0.07,0.369,0.07C416.609-88.168,416.62-88.296,416.609-88.398z"/>
		<path id="XMLID_270_" style="fill:#FFFFFF;" d="M413.718-89.665c-0.047-0.14-0.106-0.23,0.052-0.277
			c0.158-0.039,0.357-0.109,0.175-0.269c-0.193-0.156-0.468-0.363-0.602-0.262c-0.146,0.106-0.163,0.187-0.345,0.234
			c-0.193,0.039-0.468-0.219-0.486,0c-0.012,0.215,0.047,0.515,0.217,0.573c0.175,0.059,0.468-0.043,0.468,0.085
			s0.181,0.129,0.345,0.118C413.694-89.478,413.753-89.521,413.718-89.665z"/>
		<path id="XMLID_269_" style="fill:#FFFFFF;" d="M415.251-89.923c0.187-0.047,0.217-0.102,0.433,0.07
			c0.217,0.175,0.257,0.203,0.387,0.246c0.129,0.039,0.275,0.039,0.234-0.175c-0.047-0.219,0.129-0.387-0.187-0.488
			c-0.321-0.097-0.59-0.059-0.72-0.234c-0.129-0.168-0.146-0.297-0.375-0.269c-0.229,0.031-0.275,0.172-0.146,0.316
			c0.129,0.14,0.193,0.199,0.129,0.288c-0.059,0.085-0.012,0.246,0.088,0.304C415.192-89.814,415.192-89.911,415.251-89.923z"/>
		<path id="XMLID_268_" style="fill:#FFFFFF;" d="M418.714-88.8c0.024,0.106,0.123,0.285,0.375,0.246
			c0.246-0.047,0.38-0.031,0.444,0.097c0.052,0.129,0.175,0.199,0.404,0.031c0.228-0.175,0.498-0.245,0.72-0.207
			c0.21,0.047,0.731,0.117,0.526,0.316c-0.198,0.207-0.099,0.347-0.345,0.432c-0.24,0.09-0.573-0.109-0.626-0.059
			c-0.059,0.059-0.298,0.031-0.503,0.031c-0.222,0-0.713,0.028-0.696-0.101c0.017-0.129-0.199-0.117-0.264-0.039
			c-0.059,0.07-0.187,0.07-0.357,0.039c-0.175-0.028-0.175-0.097-0.229-0.355c-0.059-0.265-0.146-0.491-0.363-0.465
			c-0.21,0.031-0.339,0.071-0.503-0.058c-0.158-0.129-0.246-0.316-0.205-0.402c0.047-0.09,0.205-0.304-0.129-0.277
			c-0.333,0.031-0.375,0.059-0.415-0.168c-0.047-0.23-0.293-0.663,0-0.55c0.293,0.117,0.345,0.215,0.573,0.261
			c0.234,0.043,0.246,0.043,0.217,0.23c-0.023,0.187,0.55,0.117,0.351,0.304c-0.205,0.187-0.134,0.238,0.064,0.257
			c0.21,0.012,0.281,0.039,0.281,0.129c0,0.085,0.129,0.028,0.257-0.012C418.422-89.162,418.62-89.115,418.714-88.8z"/>
		<path id="XMLID_267_" style="fill:#FFFFFF;" d="M418.305-89.767c0.281-0.016,0.375-0.117,0.55-0.175
			c0.175-0.059,0.479-0.269,0.374-0.425c-0.105-0.164-0.374-0.196-0.316-0.394c0.052-0.199,0.076-0.257-0.193-0.343
			c-0.257-0.09-0.38-0.207-0.544-0.418c-0.158-0.215-0.257-0.246-0.375-0.074c-0.111,0.175-0.129,0.316-0.129,0.433
			c0,0.117-0.071,0.117-0.129,0.285c-0.059,0.175-0.222,0.335,0.012,0.347c0.234,0.016,0.444,0.117,0.444,0.164
			c0,0.039-0.31,0.199-0.199,0.343C417.919-89.884,418.018-89.755,418.305-89.767z"/>
		<path id="XMLID_266_" style="fill:#FFFFFF;" d="M420.048-88.917c0,0.304,0.573-0.16,0.69-0.07
			c0.117,0.085,0.099,0.257,0.363,0.156c0.257-0.097,0.398-0.058,0.486-0.175c0.087-0.109-0.017-0.156-0.146-0.273
			c-0.129-0.113-0.129-0.257,0.047-0.241c0.175,0.012,0.082-0.304,0.298-0.293c0.222,0.019,0.498-0.082,0.503-0.226
			c0.017-0.148-0.205-0.406,0.134-0.476c0.351-0.07,0.725-0.156,0.907-0.39c0.193-0.23,0.252-0.3,0.591-0.347
			c0.351-0.039,0.187-0.328,0.387-0.531c0.205-0.198,0.468-0.198,0.725-0.172c0.252,0.031,0.521-0.028,0.521-0.203
			c0-0.172-0.024-0.359-0.521-0.359c-0.503,0-1.27-0.175-1.82-0.144c-0.544,0.028-1.352,0.156-1.843,0.234
			c-0.486,0.07-0.86,0.07-1.159,0.238c-0.304,0.175-0.275,0.058-0.807,0.09c-0.538,0.028-0.994-0.012-1.012,0.215
			c-0.017,0.23,0.099,0.375,0.403,0.465c0.304,0.085,0.966,0.257,1.117,0.226c0.17-0.028,0.252,0.316-0.111,0.257
			c-0.363-0.05-0.678,0.149-0.491,0.304c0.187,0.16,0.679,0.444,0.375,0.503c-0.298,0.059-0.515,0.219-0.585,0.394
			c-0.07,0.168,0.369,0.433,0.14,0.515c-0.229,0.085-0.602,0.343-0.187,0.343s0.708,0.059,0.748-0.07
			C419.85-89.077,420.048-88.987,420.048-88.917z"/>
		<path id="XMLID_265_" style="fill:#FFFFFF;" d="M398.682-82.657c0.152,0.121,0.281,0.179,0.375,0.047
			c0.106-0.129,0.117-0.277-0.222-0.347c-0.351-0.062-0.562-0.012-0.533,0.082C398.344-82.774,398.601-82.723,398.682-82.657z"/>
		<path id="XMLID_264_" style="fill:#FFFFFF;" d="M399.367-81.249c-0.023,0.047,0.087,0.219,0.182,0.23
			c0.099,0.016,0.269-0.066,0.281-0.164C399.847-81.276,399.49-81.428,399.367-81.249z"/>
		<path id="XMLID_263_" style="fill:#FFFFFF;" d="M402.755-80.195c-0.152,0.113-0.375,0.21-0.234,0.34
			c0.146,0.137,0.199,0.152,0.375,0c0.187-0.144,0.281-0.257,0.199-0.34C403.012-80.278,402.954-80.348,402.755-80.195z"/>
		<path id="XMLID_262_" style="fill:#FFFFFF;" d="M440.881-78.76c-0.199-0.152-0.24-0.195-0.392-0.429
			c-0.158-0.234-0.211-0.094-0.286-0.468c-0.076-0.366-0.047-0.425,0.035-0.503c0.076-0.074,0.14-0.234-0.035-0.234
			c-0.182,0-0.427,0.078-0.427,0c0-0.074,0.129-0.175,0.187-0.234c0.058-0.059,0.141-0.25-0.1-0.25
			c-0.228,0-0.368,0.175-0.439,0.328c-0.082,0.156-0.099,0.024-0.117,0.351c-0.024,0.331-0.076,0.468,0.076,0.644
			s0.041,0.387,0.175,0.425c0.134,0.043,0.275-0.094,0.392,0.078c0.118,0.175,0.286,0.273,0.118,0.41
			c-0.182,0.14-0.398,0.023-0.398,0.14c0,0.109,0.117,0.328-0.071,0.503c-0.193,0.175,0.059,0.234,0.059,0.234
			s-0.023,0.097-0.123,0.191c-0.099,0.101-0.275,0.312-0.175,0.41c0.099,0.101,0.099,0,0.298-0.059
			c0.187-0.059,0.146-0.074,0.498-0.175c0.351-0.094,0.55-0.132,0.684-0.117c0.141,0.023,0.269,0.023,0.257-0.152
			c-0.017-0.175,0.035-0.273,0.135-0.331c0.099-0.059,0.152-0.293,0.04-0.351c-0.117-0.059-0.217,0.082-0.316-0.043
			C440.858-78.503,440.981-78.679,440.881-78.76z"/>
		<path id="XMLID_261_" style="fill:#FFFFFF;" d="M439.085-78.444c-0.029-0.175-0.152-0.219,0.059-0.351
			c0.217-0.14,0.14-0.316,0.064-0.394c-0.076-0.074-0.252-0.21-0.404-0.074c-0.163,0.132-0.123,0.351-0.234,0.351
			c-0.117,0-0.205,0-0.281,0.132c-0.076,0.137-0.052,0.351,0.017,0.37c0.082,0.016,0.158,0.215,0.082,0.293
			c-0.082,0.074-0.404,0.039-0.252,0.215c0.152,0.175,0.076,0.292,0.328,0.175C438.723-77.844,439.179-78.011,439.085-78.444z"/>
		<path id="XMLID_260_" style="fill:#FFFFFF;" d="M463.746-66.506c0,0.312,0.199,0.464,0.199,0.698c0,0.234-0.041,0.62,0.199,0.585
			c0.228-0.043,0.263-0.429,0.462-0.117c0.193,0.309,0.345,0.503,0.433,0.89c0.071,0.39,0.187,0.937,0.071,1.205
			c-0.117,0.273-0.187,0.117,0.158,0.702c0.351,0.578,0.199,0.694,0.351,1.123c0.152,0.425,0.427,0.586,0.614,0.702
			c0.199,0.118,0.199-0.117,0.088-0.468c-0.123-0.351-0.123-0.663-0.398-1.049c-0.264-0.387-0.696-0.503-0.579-1.322
			c0.123-0.811,0.076-1.088,0.275-0.811c0.193,0.269,0.772,0.89,0.925,1.123c0.158,0.234,0.509,0.039,0.942-0.269
			c0.427-0.312,0.427-0.585,0.187-1.131c-0.229-0.542-0.702-1.088-0.779-1.315c-0.076-0.234,0.047-0.628,0.275-0.78
			c0.228-0.156,0.345-0.468,0.503-0.309C467.823-66.896,463.746-66.506,463.746-66.506z"/>
		<path id="XMLID_259_" style="fill:#FFFFFF;" d="M465.816-60.694c-0.269-0.199-0.626-0.441-0.732-0.663
			c-0.117-0.214-0.246-0.41-0.468-0.432c-0.222-0.027-0.656-0.163-0.386,0.196c0.269,0.351,0.713,0.76,0.878,1.147
			c0.158,0.378,0.55,0.959,0.737,1.392c0.193,0.437,0.573,0.741,0.819,0.714c0.252-0.031,0.526-0.522,0.222-0.796
			c-0.298-0.269-0.439-0.71-0.632-1.014C466.068-60.448,465.927-60.613,465.816-60.694z"/>
		<path id="XMLID_258_" style="fill:#FFFFFF;" d="M467.729-58.05c-0.234,0-0.468-0.195-0.661-0.222
			c-0.193-0.024-0.462,0.387-0.088,0.519c0.387,0.14,0.527,0.059,0.883,0.14c0.351,0.082,0.848,0.219,0.989,0.269
			c0.134,0.059,0.328-0.215,0-0.328c-0.34-0.106-0.258-0.351-0.55-0.433C467.992-58.191,467.94-58.05,467.729-58.05z"/>
		<path id="XMLID_257_" style="fill:#FFFFFF;" d="M468.571-59.162c0.468-0.035,0.491,0.41,0.854,0c0.351-0.41,0.486-0.491,0.41-0.85
			c-0.082-0.355-0.17-0.328,0.052-0.41c0.217-0.082,0.076-0.437-0.029-0.656c-0.106-0.222,0.052-0.355,0.17-0.468
			c0.106-0.109,0.053-0.297-0.088-0.542c-0.14-0.253-0.252-0.172-0.41-0.059c-0.17,0.109-0.106,0.491-0.352,0.573
			c-0.245,0.082-0.245,0.328-0.444,0.387c-0.193,0.05-0.386,0.05-0.41,0.273c-0.024,0.219-0.082,0.187-0.304,0.137
			c-0.211-0.054-0.24-0.054-0.357,0.163c-0.099,0.215-0.024,0.468,0.146,0.878C467.969-59.325,468.191-59.138,468.571-59.162z"/>
		<path id="XMLID_256_" style="fill:#FFFFFF;" d="M469.94-57.169c-0.122,0.066-0.328-0.024-0.351-0.163
			c-0.029-0.132,0.187-0.082,0.298-0.082C469.993-57.414,470.239-57.332,469.94-57.169z"/>
		<path id="XMLID_255_" style="fill:#FFFFFF;" d="M471.356-57.04c0.252-0.245,0.305-0.354,0.579-0.432
			c0.275-0.085,0.573-0.222,0.275,0.024c-0.304,0.245-0.421,0.276-0.579,0.41C471.462-56.9,471.163-56.845,471.356-57.04z"/>
		<path id="XMLID_254_" style="fill:#FFFFFF;" d="M470.386-56.969c-0.076-0.047-0.252-0.152-0.14-0.163
			c0.117-0.004,0.187-0.047,0.257,0.019c0.064,0.062,0.163,0.106,0.134,0.156C470.613-56.911,470.438-56.935,470.386-56.969z"/>
		<path id="XMLID_253_" style="fill:#FFFFFF;" d="M470.502-57.367c0.082,0.007,0.269,0.101,0.356,0.07
			c0.099-0.028,0.129-0.085,0.199-0.082c0.064,0.007,0.217-0.074,0.076-0.094c-0.123-0.012-0.246-0.012-0.357-0.035
			c-0.117-0.023-0.21-0.035-0.316-0.004C470.35-57.476,470.386-57.372,470.502-57.367z"/>
		<path id="XMLID_252_" style="fill:#FFFFFF;" d="M470.157-58.631c0.052-0.152,0.036-0.238-0.047-0.413
			c-0.076-0.184,0.082-0.359,0.099-0.499c0.023-0.14,0.082-0.238,0.099-0.496c0.029-0.257-0.134-0.432,0.345-0.418
			c0.468,0.019,0.667,0.101,0.831-0.016c0.151-0.125,0.498-0.125,0.198,0.097c-0.298,0.219-0.321,0.16-0.62,0.117
			c-0.292-0.039-0.555,0-0.533,0.219c0.017,0.215,0.351,0.257,0.479,0.238c0.111-0.024,0.199,0.14,0,0.276
			c-0.199,0.14-0.298,0.281-0.129,0.398c0.181,0.117,0.526,0.316,0.281,0.496c-0.24,0.175-0.333,0.16-0.415-0.097
			c-0.082-0.257-0.082-0.557-0.158-0.281c-0.082,0.281,0.017,0.554-0.182,0.554C470.209-58.456,470.081-58.413,470.157-58.631z"/>
		<path id="XMLID_251_" style="fill:#FFFFFF;" d="M473.281-59.676c-0.087-0.117,0-0.199,0.217-0.257
			c0.222-0.059,0.492-0.082,0.492,0.156c0,0.241-0.035,0.3,0.117,0.476c0.163,0.179,0.222,0.199,0.345,0.039
			c0.111-0.156,0.135-0.355,0.333-0.375c0.193-0.024,0.34,0.019,0.55,0.101c0.222,0.074,0.585,0.331,0.842,0.433
			c0.252,0.097,0.55,0.215,0.725,0.437c0.187,0.219,0.632,0.515,0.521,0.632c-0.123,0.118-0.158,0.316,0.041,0.456
			c0.199,0.14,0.555,0.515,0.609,0.616c0.058,0.097,0.058,0.297-0.175,0.156c-0.234-0.132-0.433-0.074-0.55-0.257
			c-0.123-0.175-0.17-0.398-0.479-0.515c-0.316-0.117-0.492-0.156-0.48,0c0.017,0.16-0.134,0.242-0.41,0.242
			c-0.281,0-0.322-0.16-0.503-0.242c-0.17-0.074-0.141,0.16-0.269-0.199c-0.147-0.355-0.181-0.331-0.181-0.531
			s-0.264-0.241-0.474-0.382c-0.222-0.132-0.222-0.175-0.521-0.331c-0.298-0.16-0.638-0.125-0.55-0.281
			C473.556-59.461,473.357-59.56,473.281-59.676z"/>
		<path id="XMLID_250_" style="fill:#FFFFFF;" d="M478.014-58.222c0.111-0.012,0.468-0.297,0.533-0.378
			c0.052-0.078,0.199-0.078,0.076-0.257c-0.122-0.175-0.099-0.16-0.257,0.039c-0.163,0.199-0.094,0.219-0.292,0.257
			c-0.199,0.043-0.257,0.14-0.387,0.16C477.575-58.378,477.774-58.202,478.014-58.222z"/>
		<path id="XMLID_249_" style="fill:#FFFFFF;" d="M479.313-57.941c-0.141-0.059-0.164-0.117-0.175-0.273
			c-0.017-0.16-0.064-0.219,0.111-0.019c0.181,0.199,0.356,0.199,0.322,0.316C479.535-57.8,479.495-57.859,479.313-57.941z"/>
		<path id="XMLID_248_" style="fill:#FFFFFF;" d="M481.618-52.972c0.234,0.238,0.298,0.297,0.451,0.316
			c0.158,0.016,0.182-0.118,0-0.219c-0.175-0.097-0.193-0.097-0.375-0.297c-0.175-0.198-0.24-0.3-0.298-0.281
			C481.343-53.428,481.477-53.112,481.618-52.972z"/>
		<path id="XMLID_247_" style="fill:#FFFFFF;" d="M484.087-47.983c-0.152-0.097-0.059-0.215-0.199-0.39
			c-0.14-0.184-0.339-0.34-0.234-0.441c0.094-0.097,0.135,0,0.316,0.14c0.175,0.14,0.257,0.241,0.257,0.418
			c0,0.179,0.064,0.355,0.117,0.375c0.059,0.023,0.146,0.179,0.257,0.281c0.117,0.097,0.24,0.156,0.403,0.016
			c0.158-0.14,0.287-0.073,0.17,0.16c-0.111,0.238-0.269,0.257-0.357,0.413c-0.076,0.163-0.175,0.281-0.199,0.441
			c-0.017,0.156-0.175,0.257-0.286,0.199c-0.129-0.059-0.023-0.16-0.082-0.281c-0.058-0.117-0.058-0.394-0.205-0.433
			c-0.134-0.043-0.035-0.082,0.099-0.184C484.291-47.367,484.251-47.881,484.087-47.983z"/>
		<path id="XMLID_246_" style="fill:#FFFFFF;" d="M483.829-45.858c-0.111,0.109-0.017,0.238-0.217,0.398
			c-0.199,0.156-0.298,0.117-0.398,0.355c-0.099,0.234-0.24,0.733-0.533,0.651c-0.305-0.078-0.48-0.195-0.538-0.175
			c-0.052,0.016-0.175-0.043-0.035-0.277c0.135-0.238,0.135-0.48,0.51-0.538c0.38-0.059,0.597-0.273,0.661-0.515
			c0.059-0.238,0.193-0.316,0.193-0.472c0-0.16,0.076-0.398,0.217-0.222c0.141,0.179,0.38,0.023,0.38,0.199
			C484.069-46.275,484.028-46.057,483.829-45.858z"/>
		<path id="XMLID_245_" style="fill:#FFFFFF;" d="M476.914-46.559c0.199,0.082,0.217,0.156,0.375,0.039
			c0.163-0.117,0.234-0.238,0.234,0.024c0,0.253-0.035,0.476-0.129,0.632c-0.106,0.16-0.222,0.359-0.387,0.199
			c-0.158-0.156-0.198-0.378-0.292-0.515C476.622-46.322,476.323-46.793,476.914-46.559z"/>
		<path id="XMLID_244_" style="fill:#FFFFFF;" d="M472.182-58.97c-0.099,0.07-0.123-0.039-0.222-0.039c-0.099,0,0-0.078,0.099-0.117
			c0.099-0.043,0.14-0.043,0.199,0.023C472.31-59.045,472.257-59.029,472.182-58.97z"/>
		<path id="XMLID_243_" style="fill:#FFFFFF;" d="M472.597-59.029c-0.175,0.043-0.304-0.097-0.088-0.14
			c0.222-0.039,0.263-0.016,0.421,0c0.158,0.024,0.252,0.257,0.076,0.199C472.831-59.029,472.755-59.068,472.597-59.029z"/>
		<path id="XMLID_242_" style="fill:#FFFFFF;" d="M484.789-53.194c-0.106,0-0.363-0.14-0.14-0.222c0.217-0.078,0.281-0.137,0.304,0
			C484.964-53.276,484.865-53.194,484.789-53.194z"/>
		<path id="XMLID_241_" style="fill:#FFFFFF;" d="M484.929-53.732c0.035-0.164,0.31-0.242,0.357-0.219
			c0.041,0.019,0.041,0.184-0.064,0.219C485.128-53.693,484.912-53.65,484.929-53.732z"/>
		<path id="XMLID_240_" style="fill:#FFFFFF;" d="M482.086-55.273c-0.07-0.144,0.035-0.257,0.083-0.257
			c0.028,0,0.076,0.059,0.076,0.175C482.244-55.23,482.169-55.097,482.086-55.273z"/>
		<path id="XMLID_239_" style="fill:#FFFFFF;" d="M480.647-57.204c-0.129-0.039-0.275-0.179-0.152-0.179
			c0.123,0,0.252,0.023,0.322,0.097C480.869-57.204,480.647-57.204,480.647-57.204z"/>
		<path id="XMLID_238_" style="fill:#FFFFFF;" d="M480.799-56.845c0.047,0.121,0.222,0.156,0.222,0.156s0.024-0.118-0.059-0.156
			C480.88-56.888,480.788-56.903,480.799-56.845z"/>
		<path id="XMLID_237_" style="fill:#FFFFFF;" d="M479.992-57.383c0-0.082-0.071-0.137-0.123-0.101
			c-0.064,0.043-0.064,0.101,0.023,0.16C479.968-57.262,479.992-57.325,479.992-57.383z"/>
		<path id="XMLID_236_" style="fill:#FFFFFF;" d="M472.31-60.238c-0.071-0.16-0.175-0.277-0.017-0.476
			c0.163-0.199,0.14-0.14,0.217,0.059c0.088,0.198,0.146,0.257,0.023,0.418C472.409-60.075,472.409-60.016,472.31-60.238z"/>
		<path id="XMLID_235_" style="fill:#FFFFFF;" d="M471.836-62.2c-0.029-0.094-0.012-0.117,0.047-0.257
			c0.052-0.14,0.129-0.378,0.076-0.495c-0.064-0.117-0.023-0.277-0.24-0.101c-0.222,0.184-0.31,0.101-0.533,0.199
			c-0.222,0.101-0.275,0.3-0.023,0.316c0.263,0.023,0.333,0.023,0.275,0.199c-0.052,0.184,0.123,0.199,0.222,0.3
			C471.76-61.942,471.894-62.04,471.836-62.2z"/>
		<path id="XMLID_234_" style="fill:#FFFFFF;" d="M470.724-64.895c-0.012-0.219,0.088-0.398,0.217-0.573
			c0.146-0.184,0.024-0.199,0-0.398c-0.017-0.199,0.024-0.175-0.17-0.199c-0.205-0.019-0.222,0.097-0.264,0.215
			c-0.041,0.125-0.017,0.421-0.017,0.499c0,0.082-0.234,0-0.14,0.199c0.106,0.199,0.158,0.378,0.217,0.554
			c0.064,0.175,0.099,0.118,0.246,0.102c0.129-0.024,0.252-0.059,0.415,0.097c0.158,0.16,0.21,0.078,0.182-0.059
			c-0.047-0.14-0.17-0.281-0.321-0.261C470.924-64.696,470.748-64.696,470.724-64.895z"/>
		<path id="XMLID_233_" style="fill:#FFFFFF;" d="M471.625-63.725c0-0.101,0-0.14-0.064-0.241c-0.064-0.097-0.123-0.199,0.04-0.215
			c0.158-0.019,0.199-0.14,0.199,0.156c0,0.3-0.017,0.573,0,0.64C471.824-63.327,471.625-63.487,471.625-63.725z"/>
		<path id="XMLID_232_" style="fill:#FFFFFF;" d="M470.813-63.569c0-0.199-0.064-0.437,0.152-0.297
			c0.222,0.14,0.263,0.199,0.375,0.281c0.122,0.074,0,0.215-0.1,0.375c-0.099,0.156-0.298,0.117-0.316-0.019
			C470.912-63.37,470.813-63.429,470.813-63.569z"/>
		<path id="XMLID_231_" style="fill:#FFFFFF;" d="M470.057-63.129c0.053-0.106,0.053-0.184,0.152-0.222
			c0.099-0.035,0.099-0.078,0.099-0.219s-0.076-0.175-0.152-0.016c-0.075,0.156-0.146,0.117-0.198,0.293
			c-0.064,0.179-0.298,0.238-0.322,0.378c-0.017,0.14,0,0.16,0.163,0.043C469.958-62.995,469.975-62.972,470.057-63.129z"/>
		<path id="XMLID_230_" style="fill:#FFFFFF;" d="M467.577-66.007c0.04,0.14,0.082,0.179,0.24,0.156
			c0.152-0.016,0.275-0.094,0.31-0.234c0.041-0.14,0.14-0.437-0.059-0.413c-0.198,0.016-0.252,0.097-0.398,0.156
			C467.542-66.283,467.513-66.205,467.577-66.007z"/>
		<path id="XMLID_229_" style="fill:#FFFFFF;" d="M470.532-67.551c-0.024-0.117,0-0.34,0.099-0.456
			c0.094-0.117,0.152-0.277,0.222-0.3c0.059-0.016,0.175,0,0.111,0.222c-0.053,0.219-0.152,0.418-0.135,0.573
			C470.853-67.352,470.59-67.153,470.532-67.551z"/>
		<path id="XMLID_228_" style="fill:#FFFFFF;" d="M472.807-70.928c-0.047-0.187-0.099-0.491,0.123-0.554
			c0.222-0.059,0.351-0.16,0.509-0.316c0.164-0.16,0.164-0.136,0.421-0.16c0.257-0.016,0.392,0.101,0.474-0.097
			c0.076-0.199,0.158-0.257,0.345-0.418c0.175-0.156,0.328-0.273,0.474-0.472c0.134-0.199,0.24-0.456,0.24-0.64
			c0-0.175-0.024-0.355,0.111-0.375c0.146-0.016,0.222,0.019,0.298,0.219c0.076,0.199,0.123,0.538-0.035,0.635
			c-0.163,0.102-0.187,0.117-0.187,0.335c0,0.222-0.011,0.496-0.011,0.597c0,0.097-0.164,0.531-0.515,0.573
			c-0.363,0.039-0.498-0.059-0.538-0.019c-0.035,0.043-0.082,0.234-0.222,0.335c-0.141,0.097-0.199,0.039-0.211-0.059
			c-0.029-0.101-0.129-0.257-0.106-0.14c0.024,0.12-0.023,0.199-0.151,0.281c-0.146,0.074-0.264,0.34-0.321,0.179
			c-0.064-0.163-0.123-0.281-0.024-0.32c0.099-0.043,0.047-0.117-0.099-0.078c-0.129,0.035-0.275,0.035-0.199,0.16
			c0.082,0.117,0.082,0.297,0.047,0.456c-0.047,0.156-0.076,0.331-0.298,0.316c-0.222-0.019-0.134-0.117-0.099-0.219
			C472.866-70.803,472.831-70.847,472.807-70.928z"/>
		<path id="XMLID_227_" style="fill:#FFFFFF;" d="M475.581-74.372c-0.023-0.035,0.146-0.101,0.146-0.101s0.111,0.078,0.24,0.117
			c0.111,0.043,0.234,0.059,0.292-0.074c0.064-0.14,0.041-0.199,0.241-0.199c0.198,0,0.351,0,0.275-0.14s0.035-0.316-0.275-0.277
			c-0.322,0.035-0.241,0.101-0.398-0.121c-0.158-0.219-0.24-0.558-0.352-0.476c-0.122,0.082-0.087,0.16,0,0.359
			c0.076,0.199,0.088,0.355,0.017,0.437c-0.088,0.078,0,0.117-0.117,0.16c-0.123,0.035-0.146,0-0.246,0.097
			c-0.099,0.094-0.134,0.195-0.099,0.257c0.047,0.059,0.123,0.137,0.222,0.117C475.628-74.24,475.628-74.314,475.581-74.372z"/>
		<path id="XMLID_226_" style="fill:#FFFFFF;" d="M475.966-76.256c0-0.14,0-0.3,0-0.538c0-0.234,0.07-0.55,0.012-0.749
			c-0.053-0.199-0.152-0.281-0.076-0.515c0.076-0.241,0.076-0.199,0.123-0.34c0.035-0.14,0.076-0.359,0.175-0.375
			c0.099-0.024,0.099,0.413,0.141,0.554c0.035,0.137-0.118,0.417-0.017,0.651c0.1,0.238,0.351,0.413,0.1,0.496
			c-0.258,0.078-0.258,0.34-0.281,0.573c-0.017,0.242,0.024,0.418,0.082,0.538c0.052,0.117-0.082,0.14-0.123,0.059
			c-0.041-0.082-0.298,0.241-0.199-0.024C476.001-76.175,475.966-76.14,475.966-76.256z"/>
		<path id="XMLID_225_" style="fill:#FFFFFF;" d="M436.564-82.926c0.263-0.184,0.533-0.324,0.72-0.394
			c0.175-0.071,0.333-0.32,0.151-0.444c-0.175-0.121-0.392-0.503-0.55-0.39c-0.163,0.106-0.245,0.226-0.498,0.156
			c-0.252-0.07-0.573-0.21-0.644-0.016c-0.064,0.199-0.181,0.25-0.217,0.035c-0.035-0.211-0.117-0.359-0.316-0.14
			c-0.199,0.215-0.521,0.32-0.304,0.41c0.211,0.085,0.263,0.25,0.129,0.25c-0.146,0,0.151,0.14,0.245,0.21
			c0.088,0.07-0.111,0.394,0.264,0.444C435.921-82.746,436.266-82.711,436.564-82.926z"/>
		<path id="XMLID_224_" style="fill:#FFFFFF;" d="M444.603-88.694c0.047,0.028,0.199-0.172,0.264-0.433
			c0.047-0.265,0.257-0.85,0.357-0.959c0.094-0.113,0.205-0.113,0.17,0.281c-0.041,0.398,0.152,0.507,0.398,0.491
			c0.24-0.019,0.333-0.281,0.163-0.585c-0.163-0.3-0.304-0.62-0.409-0.85c-0.118-0.222-0.118-0.433,0.029-0.468
			c0.152-0.039,0.152,0.545,0.474,0.172c0.322-0.382,0.679-0.663,0.34-0.85c-0.34-0.187-0.69-0.433-1.036-0.285
			c-0.333,0.152-0.333,0.456-0.72,0.398c-0.375-0.059-0.526-0.526-0.708-0.078c-0.193,0.453-0.398,0.889-0.228,1.131
			c0.163,0.246,0.526,0.378,0.468,0.679c-0.059,0.304-0.087,0.456,0.059,0.753C444.374-88.995,444.48-88.749,444.603-88.694z"/>
		<path id="XMLID_223_" style="fill:#FFFFFF;" d="M454.859-86.518c-0.1-0.054-0.41-0.219-0.199-0.562
			c0.222-0.351,0.257-0.371,0.526-0.608c0.252-0.241-0.029-0.199,0.474-0.48c0.498-0.281,0.778-0.433,1.258-0.585
			c0.48-0.152,0.843-0.043,0.983-0.394c0.129-0.343-0.047-0.519-0.351-0.456c-0.304,0.07-0.071,0.328-0.544,0.375
			c-0.474,0.043-0.848,0.152-1.024,0.172c-0.17,0.023-0.609,0.262-0.913,0.413c-0.304,0.152-0.41,0.609-0.585,0.78
			c-0.17,0.175-0.252,0.433-0.498,0.519c-0.24,0.09-0.544,0.522-0.264,0.656c0.286,0.129,0.392,0.281,0.784,0.387
			c0.398,0.113,0.679,0.151,0.701,0.066C455.221-86.32,455.01-86.432,454.859-86.518z"/>
		<path id="XMLID_222_" style="fill:#FFFFFF;" d="M452.863-91.23c0.24-0.121,0.24-0.105,0.498-0.214
			c0.257-0.106,0.234-0.195,0.21-0.41c-0.012-0.222,0.07-0.546-0.187-0.328c-0.257,0.215-0.281,0.432-0.498,0.304
			c-0.222-0.129-0.509-0.371-0.895-0.219c-0.387,0.152-1.001,0.304-0.72,0.433c0.293,0.129,0.521,0.152,0.649,0.195
			c0.14,0.047,0.047-0.043,0.222-0.172c0.17-0.132,0.392-0.132,0.345,0.019C452.442-91.468,452.401-90.988,452.863-91.23z"/>
		<path id="XMLID_221_" style="fill:#FFFFFF;" d="M453.466-90.902c0.17,0.054,0.129-0.262,0.047-0.262s-0.234,0-0.234,0.132
			C453.278-90.902,453.407-90.925,453.466-90.902z"/>
		<path id="XMLID_220_" style="fill:#FFFFFF;" d="M453.922-91.183c0.094,0.054,0.217-0.047,0.24-0.175
			c0.023-0.129-0.071-0.215-0.199-0.191C453.834-91.534,453.811-91.246,453.922-91.183z"/>
		<path id="XMLID_219_" style="fill:#FFFFFF;" d="M455.982-91.468c0.245,0,0.421,0,0.328-0.234c-0.082-0.241,0-0.375,0-0.456
			c0-0.09,0-0.417-0.21-0.417c-0.217,0-0.094,0.305-0.217,0.417c-0.134,0.106-0.175,0.129-0.222,0.41
			C455.613-91.468,455.747-91.468,455.982-91.468z"/>
		<path id="XMLID_218_" style="fill:#FFFFFF;" d="M456.566-92.076c0.064,0.144,0.117,0.07,0.351-0.019
			c0.24-0.085,0.135,0.066,0.111-0.304c-0.023-0.366,0.023-0.632-0.17-0.609c-0.205,0.024-0.205,0.129-0.328,0.281
			C456.403-92.575,456.485-92.294,456.566-92.076z"/>
		<path id="XMLID_217_" style="fill:#FFFFFF;" d="M455.794-91.163c-0.134,0-0.264,0-0.286,0.085
			c-0.023,0.09,0.088,0.175,0.222,0.175C455.858-90.902,455.882-91.163,455.794-91.163z"/>
		<path id="XMLID_216_" style="fill:#FFFFFF;" d="M455.397-91.335c0.199,0,0.064-0.351,0-0.39c-0.064-0.047-0.339-0.09-0.339,0.129
			c0,0.215,0,0.281,0.059,0.328C455.185-91.23,455.332-91.335,455.397-91.335z"/>
		<path id="XMLID_215_" style="fill:#FFFFFF;" d="M454.659-91.335c0.059,0.113,0.094,0.195,0.175,0.195
			c0.082,0,0.082-0.024,0.024-0.304c-0.07-0.281-0.175-0.371,0.023-0.456c0.187-0.09,0-0.043,0.059-0.241
			c0.07-0.191,0.047-0.215,0.351-0.343c0.304-0.129,0.193-0.522-0.047-0.432c-0.234,0.085-0.456,0.343-0.609,0.432
			c-0.152,0.085-0.34,0.062-0.369,0.215c-0.017,0.151-0.193,0.195,0.071,0.281c0.264,0.09,0.217,0.175,0.24,0.351
			C454.601-91.468,454.624-91.421,454.659-91.335z"/>
		<path id="XMLID_214_" style="fill:#FFFFFF;" d="M452.84-85.496c-0.035,0.054-0.106,0.195,0.088,0.219
			c0.199,0.016,0.257,0.085,0.351-0.066c0.082-0.152,0.035-0.39-0.117-0.39C453.009-85.734,452.928-85.629,452.84-85.496z"/>
		<path id="XMLID_213_" style="fill:#FFFFFF;" d="M465.968-89.946c0.263,0,0.321-0.043,0.567-0.043c0.234,0,0.304-0.07,0.257-0.351
			c-0.047-0.281-0.129-0.433-0.409-0.456c-0.286-0.016-0.24-0.387-0.369-0.106c-0.135,0.281-0.07,0.347-0.264,0.675
			c-0.199,0.328-0.281,0.41-0.152,0.432C465.729-89.771,465.845-89.946,465.968-89.946z"/>
		<path id="XMLID_212_" style="fill:#FFFFFF;" d="M465.599-90.555c-0.047-0.163-0.058-0.152,0.071-0.347
			c0.123-0.199,0.035-0.343-0.281-0.366c-0.328-0.023-0.456-0.304-0.848,0c-0.398,0.304-0.767,0.238-0.544,0.472
			c0.21,0.241,0.321,0.175,0.626,0.456c0.31,0.281,0.322,0.456,0.614,0.265C465.518-90.274,465.641-90.403,465.599-90.555z"/>
		<path id="XMLID_211_" style="fill:#FFFFFF;" d="M464.716-91.619c0.129-0.106,0.106-0.152,0-0.304
			c-0.117-0.152-0.175-0.562-0.398-0.476c-0.217,0.09-0.521,0.106-0.696,0.394c-0.175,0.281-0.275,0.41-0.099,0.519
			c0.17,0.106,0.217,0.219,0.498,0.241C464.295-91.23,464.599-91.534,464.716-91.619z"/>
		<path id="XMLID_210_" style="fill:#FFFFFF;" d="M463.564-91.163c-0.151,0-0.269,0.109-0.193,0.222
			c0.064,0.106,0.193,0.106,0.275,0.106c0.094,0,0.222-0.023,0.152-0.152C463.739-91.116,463.599-91.163,463.564-91.163z"/>
		<path id="XMLID_209_" style="fill:#FFFFFF;" d="M475.177-88.25c0.193,0.023,0.392,0.039,0.673,0
			c0.275-0.047,0.305-0.175,0.474-0.16c0.175,0.023,0.217,0,0.257-0.191c0.047-0.195-0.152-0.37-0.392-0.347
			c-0.234,0.023-0.433-0.328-0.491-0.086c-0.07,0.238-0.094,0.191-0.281,0.086c-0.199-0.109-0.357-0.047-0.526,0.106
			C474.715-88.69,474.89-88.296,475.177-88.25z"/>
		<path id="XMLID_208_" style="fill:#FFFFFF;" d="M477.148-88.386c-0.146-0.074-0.591-0.39-0.175-0.41
			c0.41-0.023,0.55,0.066,0.737,0.09c0.194,0.016,0.392,0.039,0.392,0.234c0,0.199,0,0.238-0.328,0.238
			C477.453-88.234,477.277-88.32,477.148-88.386z"/>
		<path id="XMLID_207_" style="fill:#FFFFFF;" d="M485.567-86.32c0.245,0.012,0.474,0.016,0.498-0.066
			c0.023-0.085,0.152-0.285-0.187-0.285c-0.352,0-0.51-0.129-0.661,0.062C485.064-86.409,485.176-86.342,485.567-86.32z"/>
		<path id="XMLID_206_" style="fill:#FFFFFF;" d="M476.914-75.122c-0.071,0.023,0.035-0.219,0.035-0.219s0.118,0.09,0.118,0.152
			C477.066-75.122,476.973-75.145,476.914-75.122z"/>
		<path id="XMLID_205_" style="fill:#FFFFFF;" d="M477.254-75.469c-0.099,0.066,0-0.085,0.117-0.175
			c0.106-0.085,0.187-0.343,0.21-0.129c0.017,0.219,0.083,0.257-0.105,0.324C477.277-75.379,477.324-75.515,477.254-75.469z"/>
		<path id="XMLID_204_" style="fill:#FFFFFF;" d="M479.161-77.707c-0.106,0.07-0.141,0.132-0.088,0.234
			c0.052,0.094,0.099,0.121,0.205,0.082c0.106-0.043,0.281-0.117,0.199-0.222C479.395-77.719,479.231-77.762,479.161-77.707z"/>
		<path id="XMLID_203_" style="fill:#FFFFFF;" d="M477.745-75.807c0,0.059,0.052,0.106,0.205,0.012
			c0.147-0.094,0.152-0.262,0.123-0.285c-0.035-0.019-0.222,0.047-0.269,0.097C477.769-75.929,477.745-75.823,477.745-75.807z"/>
		<path id="XMLID_202_" style="fill:#FFFFFF;" d="M478.236-76.206c-0.012-0.039,0-0.012,0.111-0.129
			c0.099-0.117,0.222-0.129,0.252-0.273c0.029-0.149,0.099-0.253,0.175-0.304c0.094-0.054,0.222-0.106,0.123,0.039
			c-0.099,0.148-0.199,0.198-0.222,0.276c-0.024,0.074-0.106,0.211-0.217,0.293C478.354-76.218,478.248-76.186,478.236-76.206z"/>
		<path id="XMLID_201_" style="fill:#FFFFFF;" d="M460.685-63.058c-0.082,0.168-0.175,0.328-0.175,0.507
			c0,0.175,0.199,0.534,0.264,0.609c0.064,0.078,0.182-0.05,0.357-0.215c0.175-0.163,0.281-0.152,0.076-0.479
			C461.001-62.972,460.802-63.288,460.685-63.058z"/>
		<path id="XMLID_200_" style="fill:#FFFFFF;" d="M488.042-53.225c0.017,0.129-0.082,0.101-0.187,0.175
			c-0.099,0.082-0.07,0.207,0.035,0.324c0.106,0.109,0.293,0.164,0.386,0c0.083-0.163,0.024-0.421-0.023-0.527
			C488.194-53.354,488.036-53.354,488.042-53.225z"/>
		<path id="XMLID_199_" style="fill:#FFFFFF;" d="M485.988-55.09c0.134,0.156,0.398,0.074,0.398,0.074s-0.017-0.226-0.246-0.39
			c-0.229-0.172-0.345-0.118-0.375,0.011C485.748-55.265,485.877-55.214,485.988-55.09z"/>
		<path id="XMLID_198_" style="fill:#FFFFFF;" d="M448.844-71.447c-0.117-0.023,0.036-0.347,0.199-0.347s0.667-0.203,0.456,0.023
			C449.295-71.541,448.949-71.424,448.844-71.447z"/>
		<path id="XMLID_197_" style="fill:#FFFFFF;" d="M447.018-71.541c-0.233,0-0.415-0.16-0.321-0.253
			c0.088-0.086,0.135-0.156,0.369-0.047c0.228,0.117,0.538,0.117,0.404,0.23C447.334-71.494,447.194-71.541,447.018-71.541z"/>
		<path id="XMLID_196_" style="fill:#FFFFFF;" d="M444.65-72.313c-0.123-0.16,0-0.41-0.205-0.394c-0.21,0.024-0.76,0.047-0.527,0.23
			c0.222,0.187,0.357,0.094,0.479,0.187C444.503-72.204,444.714-72.228,444.65-72.313z"/>
		<path id="XMLID_195_" style="fill:#FFFFFF;" d="M443.327-73.386c-0.024-0.132-0.123-0.343-0.158-0.343
			c-0.047,0-0.234-0.207-0.257,0.024c-0.024,0.226-0.135,0.503,0.041,0.612C443.146-72.977,443.374-73.132,443.327-73.386z"/>
		<path id="XMLID_194_" style="fill:#FFFFFF;" d="M441.73-73.116c0.123,0,0.071-0.316-0.023-0.316c-0.099,0-0.228,0.113-0.205,0.207
			C441.52-73.132,441.631-73.116,441.73-73.116z"/>
		<path id="XMLID_193_" style="fill:#FFFFFF;" d="M443.59-79.131c-0.04-0.106-0.158-0.25-0.04-0.41
			c0.111-0.163,0.205-0.32,0.298-0.047c0.094,0.277,0,0.363-0.094,0.456C443.661-79.041,443.614-79.084,443.59-79.131z"/>
		<path id="XMLID_192_" style="fill:#FFFFFF;" d="M445.281-80.176c-0.082-0.047,0.07-0.277,0.181-0.324
			c0.111-0.047,0.281-0.25,0.234-0.023C445.649-80.293,445.445-80.091,445.281-80.176z"/>
		<path id="XMLID_191_" style="fill:#FFFFFF;" d="M452.94-55.659c-0.106,0.293-0.503,0.585-0.737,0.628
			c-0.24,0.039-0.41,0.515-0.41,0.62c0,0.109,0.41,0.585,0.129,0.901c-0.281,0.328-0.357,0.328-0.257,0.777
			c0.106,0.453,0.151,0.667,0.328,0.815c0.17,0.152,0.345,0.129,0.538-0.09c0.187-0.21,0.339-0.34,0.356-0.878
			c0.023-0.538-0.099-0.624,0.111-0.858c0.217-0.234,0.193-0.429,0.24-0.749c0.041-0.324,0.123-0.538,0.228-0.69
			c0.118-0.148-0.012-0.277-0.059-0.581C453.361-56.06,453.261-56.576,452.94-55.659z"/>
		<path id="XMLID_190_" style="fill:#FFFFFF;" d="M427.63-85.348c-0.117-0.14-0.205-0.265,0-0.546
			c0.217-0.285,0.094-0.472,0.398-0.246c0.298,0.23,0.573,0.406,0.21,0.651C427.865-85.243,427.83-85.121,427.63-85.348z"/>
		<path id="XMLID_189_" style="fill:#FFFFFF;" d="M407.283-79.822c-0.146-0.234-0.339-0.519-0.094-0.479
			c0.257,0.047,0.234-0.024,0.503,0.324c0.269,0.34,0.41,0.749,0.41,0.812c0,0.07-0.141,0.16,0.023,0.616
			c0.158,0.456,0.527,1.041,0.229,0.772c-0.298-0.277-0.573-0.569-0.544-1.003c0.023-0.432-0.117-0.589-0.275-0.796
			C407.377-79.775,407.4-79.638,407.283-79.822z"/>
		<path id="XMLID_188_" style="fill:#FFFFFF;" d="M416.199-90.808c0,0.281,0.234,0.16,0.322,0.16c0.094,0,0-0.293-0.111-0.316
			C416.292-90.988,416.199-90.941,416.199-90.808z"/>
		<path id="XMLID_187_" style="fill:#FFFFFF;" d="M415.473-89.674c0.14,0.055,0.229,0.324,0.163,0.34
			c-0.07,0.024-0.269,0.024-0.34-0.062C415.221-89.49,415.368-89.712,415.473-89.674z"/>
		<path id="XMLID_186_" style="fill:#FFFFFF;" d="M414.725-89.853c0.094,0.199,0.123,0.387-0.07,0.456
			c-0.182,0.062-0.205-0.117-0.246-0.23C414.368-89.736,414.642-90.059,414.725-89.853z"/>
		<path id="XMLID_185_" style="fill:#FFFFFF;" d="M414.888-87.512c0.111,0.039,0.087,0.156,0.047,0.316
			c-0.047,0.156-0.187,0.07-0.316-0.113C414.473-87.489,414.678-87.583,414.888-87.512z"/>
		<path id="XMLID_184_" style="fill:#FFFFFF;" d="M415.07-88.105c-0.135,0.129-0.252-0.203-0.222-0.25
			c0.017-0.043,0.088-0.184,0.199,0C415.157-88.175,415.134-88.175,415.07-88.105z"/>
		<path id="XMLID_183_" style="fill:#FFFFFF;" d="M421.289-82.15c0.023-0.129,0.012-0.25-0.129-0.214
			c-0.147,0.035-0.123,0.187-0.118,0.285c0.017,0.094,0.099,0.152,0.193,0.14C421.318-81.951,421.283-82.091,421.289-82.15z"/>
		<path id="XMLID_182_" style="fill:#FFFFFF;" d="M421.587-82.528c-0.088-0.047-0.175-0.175-0.088-0.253
			c0.088-0.074,0.163-0.085,0.234-0.039c0.076,0.039,0.071-0.012,0.163-0.07c0.106-0.055,0.205-0.129,0.234,0.07
			c0.029,0.191-0.17,0.226-0.199,0.168c-0.035-0.05-0.129-0.085-0.187,0C421.693-82.563,421.634-82.493,421.587-82.528z"/>
	</g>
</g>
<g id="XMLID_138_">
	<polygon id="XMLID_177_" style="fill:#FBB222;" points="468.776,201.217 425.186,201.217 429.533,254.07 430.669,254.07 
		430.669,255.7 463.855,255.7 463.855,254.07 464.429,254.07 	"/>
	<path id="XMLID_174_" style="fill:#FBB222;" d="M466.723,195.656c0,1.817-1.473,3.29-3.29,3.29H430.53
		c-1.817,0-3.29-1.473-3.29-3.29v-0.822c0-1.817,1.473-3.29,3.29-3.29h32.903c1.817,0,3.29,1.473,3.29,3.29L466.723,195.656
		L466.723,195.656z"/>
	<path id="XMLID_162_" style="fill:#886327;" d="M471.453,197.301c0,1.817-1.473,3.29-3.29,3.29H425.8
		c-1.817,0-3.29-1.473-3.29-3.29v-0.274c0-1.817,1.473-3.29,3.29-3.29h42.362c1.817,0,3.29,1.473,3.29,3.29v0.274H471.453z"/>
	<polygon id="XMLID_159_" style="fill:#886327;" points="426.203,213.578 467.76,213.578 465.335,243.061 428.628,243.061 	"/>
	<g id="XMLID_139_">
		<path id="XMLID_156_" style="fill:#FBB222;" d="M439.566,223.003c0.716-2.231,2.258-4.231,4.072-4.706
			c0,0.001,0.001,0.002,0.002,0.002c-0.85-0.911-2.393-2.766-5.562-0.381c-3.527,2.655-3.297,7.654-2.182,9.002
			c0.071,0.087,0.16,0.168,0.263,0.244c-0.001-0.001-0.003-0.002-0.004-0.003C437.451,226.844,438.743,225.568,439.566,223.003z"/>
		<path id="XMLID_152_" style="fill:#FBB222;" d="M444.032,218.661c-1.272,0.636-2.768,2.585-3.26,4.544
			c-0.57,2.269-2.491,3.833-4.026,4.274c1.9,0.742,5.905,0.312,8.371-3.238C447.901,220.23,444.886,219.216,444.032,218.661z"/>
		<path id="XMLID_149_" style="fill:#FBB222;" d="M446.015,233.397c0.716-2.231,2.259-4.231,4.072-4.706
			c0,0.001,0.001,0.002,0.002,0.002c-0.85-0.911-2.393-2.766-5.561-0.381c-3.527,2.655-3.297,7.654-2.182,9.003
			c0.071,0.087,0.16,0.169,0.263,0.244c-0.001-0.001-0.003-0.002-0.004-0.003C443.901,237.237,445.193,235.962,446.015,233.397z"/>
		<path id="XMLID_146_" style="fill:#FBB222;" d="M450.482,229.054c-1.272,0.635-2.768,2.585-3.26,4.544
			c-0.57,2.268-2.491,3.833-4.026,4.274c1.9,0.742,5.904,0.312,8.371-3.238C454.351,230.624,451.336,229.61,450.482,229.054z"/>
		<path id="XMLID_143_" style="fill:#FBB222;" d="M452.09,222.048c0.716-2.232,2.259-4.232,4.072-4.706
			c0,0.001,0.001,0.002,0.002,0.002c-0.85-0.911-2.393-2.766-5.561-0.381c-3.527,2.655-3.298,7.654-2.182,9.003
			c0.071,0.086,0.16,0.168,0.263,0.244c-0.001-0.001-0.003-0.002-0.004-0.003C449.975,225.888,451.268,224.612,452.09,222.048z"/>
		<path id="XMLID_140_" style="fill:#FBB222;" d="M456.556,217.705c-1.272,0.636-2.768,2.585-3.26,4.544
			c-0.57,2.268-2.491,3.833-4.026,4.274c1.9,0.742,5.904,0.312,8.371-3.239C460.426,219.274,457.411,218.26,456.556,217.705z"/>
	</g>
</g>
<g id="XMLID_2_">
	<g id="XMLID_6_">
		<path id="XMLID_135_" style="fill:#16B6A6;" d="M778.499,264.537c0,0,8.908-2.018,9.633,2.405
			c0.724,4.422-8.518,5.386-8.518,5.386L778.499,264.537z"/>
		<g id="XMLID_125_">
			
				<rect id="XMLID_132_" x="731.715" y="269.197" transform="matrix(-0.9868 0.1617 -0.1617 -0.9868 1532.3376 415.8484)" style="fill:#FBDE86;" width="35.063" height="2.17"/>
			
				<rect id="XMLID_129_" x="732.674" y="275.047" transform="matrix(-0.9868 0.1617 -0.1617 -0.9868 1535.1906 427.3172)" style="fill:#DDA427;" width="35.063" height="2.17"/>
			
				<rect id="XMLID_126_" x="732.195" y="271.328" transform="matrix(-0.9868 0.1617 -0.1617 -0.9868 1533.7644 421.5838)" style="fill:#FCD246;" width="35.063" height="3.76"/>
		</g>
		<g id="XMLID_118_">
			<polygon id="XMLID_122_" style="fill:#435163;" points="717.69,278.483 720.987,278.821 720.706,277.111 			"/>
			<polygon id="XMLID_119_" style="fill:#EFDEB2;" points="731.786,272.07 720.706,277.111 720.987,278.821 733.096,280.063 			"/>
		</g>
		
			<rect id="XMLID_107_" x="769.117" y="263.182" transform="matrix(-0.1616 -0.9869 0.9869 -0.1616 632.2353 1075.953)" style="fill:#D6DAE1;" width="8.1" height="12.46"/>
		<path id="XMLID_104_" style="fill:#F3F3F3;" d="M777.012,273.137c-0.374,0.061-0.708-0.081-0.747-0.318l-1.255-7.661
			c-0.039-0.237,0.232-0.479,0.607-0.54l0,0c0.374-0.062,0.709,0.081,0.747,0.318l1.255,7.66
			C777.658,272.834,777.386,273.076,777.012,273.137L777.012,273.137z"/>
		<path id="XMLID_7_" style="fill:#F3F3F3;" d="M770.984,274.125c-0.374,0.061-0.709-0.081-0.748-0.318l-1.255-7.661
			c-0.039-0.237,0.232-0.479,0.607-0.54l0,0c0.374-0.061,0.709,0.081,0.748,0.318l1.255,7.661
			C771.63,273.822,771.358,274.064,770.984,274.125L770.984,274.125z"/>
	</g>
	<path id="XMLID_3_" style="fill:#62C5B8;" d="M782.421,267.881c-0.801,0.131-1.516-0.159-1.596-0.647l-0.132-0.804
		c-0.08-0.489,0.505-0.991,1.306-1.122l2.267-0.372c0.802-0.131,1.516,0.158,1.596,0.647l0.132,0.804
		c0.08,0.489-0.505,0.991-1.307,1.123L782.421,267.881z"/>
</g>
</svg>
